M48
; DRILL file {KiCad 5.1.2-f72e74a~84~ubuntu18.04.1} date mar. 26 nov. 2019 17:04:56 CET
; FORMAT={-:-/ absolute / inch / decimal}
; #@! TF.CreationDate,2019-11-26T17:04:56+01:00
; #@! TF.GenerationSoftware,Kicad,Pcbnew,5.1.2-f72e74a~84~ubuntu18.04.1
FMAT,2
INCH
T1C0.0157
T2C0.0453
%
G90
G05
T1
X3.35Y-3.6
X3.35Y-3.8
X3.4Y-3.6
X3.4Y-3.6
X3.4Y-3.8
X3.45Y-3.6
X3.45Y-3.8
X3.9118Y-2.8264
X3.9343Y-2.7921
X3.9843Y-2.7764
X4.0343Y-2.7921
X4.0579Y-2.8276
X4.5472Y-3.6
X4.5472Y-3.8
X4.5972Y-3.6
X4.5972Y-3.8
X4.6472Y-3.6
X4.6472Y-3.8
T2
X3.9122Y-3.9
X4.05Y-3.9
T0
M30
