M48
; DRILL file {KiCad 5.1.2-f72e74a~84~ubuntu18.04.1} date jeu. 21 nov. 2019 14:14:46 CET
; FORMAT={-:-/ absolute / inch / decimal}
; #@! TF.CreationDate,2019-11-21T14:14:46+01:00
; #@! TF.GenerationSoftware,Kicad,Pcbnew,5.1.2-f72e74a~84~ubuntu18.04.1
FMAT,2
INCH
T1C0.0157
T2C0.0453
%
G90
G05
T1
X2.25Y-3.4
X2.25Y-3.6
X2.3Y-3.4
X2.3Y-3.6
X2.35Y-3.4
X2.35Y-3.6
X2.7Y-3.6673
X2.7Y-3.7008
X2.7Y-3.7331
X2.75Y-3.6831
X2.75Y-3.7331
X2.8Y-3.6673
X2.8Y-3.7008
X2.8Y-3.7331
X6.5Y-4.2713
X6.5Y-4.3047
X6.5Y-4.337
X6.55Y-4.287
X6.55Y-4.337
X6.6Y-4.2713
X6.6Y-4.3047
X6.6Y-4.337
X6.9Y-3.9736
X6.9Y-4.1843
X6.95Y-3.9736
X6.95Y-4.1843
X7.0Y-3.9736
X7.0Y-4.1843
T2
X6.8Y-3.35
X6.9378Y-3.35
T0
M30
