G04 #@! TF.GenerationSoftware,KiCad,Pcbnew,5.1.2-f72e74a~84~ubuntu18.04.1*
G04 #@! TF.CreationDate,2019-11-21T14:14:44+01:00*
G04 #@! TF.ProjectId,FR4_proto,4652345f-7072-46f7-946f-2e6b69636164,rev?*
G04 #@! TF.SameCoordinates,Original*
G04 #@! TF.FileFunction,Copper,L1,Top*
G04 #@! TF.FilePolarity,Positive*
%FSLAX46Y46*%
G04 Gerber Fmt 4.6, Leading zero omitted, Abs format (unit mm)*
G04 Created by KiCad (PCBNEW 5.1.2-f72e74a~84~ubuntu18.04.1) date 2019-11-21 14:14:44*
%MOMM*%
%LPD*%
G04 APERTURE LIST*
%ADD10C,1.524000*%
%ADD11R,4.060000X1.520000*%
%ADD12R,4.600000X1.520000*%
%ADD13C,0.100000*%
%ADD14C,0.950000*%
%ADD15C,1.050000*%
%ADD16C,0.800000*%
%ADD17C,2.360000*%
%ADD18C,2.845000*%
%ADD19C,2.900000*%
%ADD20C,0.250000*%
G04 APERTURE END LIST*
D10*
X172720000Y-85090000D03*
X176220000Y-85090000D03*
D11*
X176530000Y-106180000D03*
X176530000Y-101100000D03*
D12*
X176530000Y-103640000D03*
D11*
X58420000Y-86360000D03*
X58420000Y-91440000D03*
D12*
X58420000Y-88900000D03*
D13*
G36*
X166630779Y-108396144D02*
G01*
X166653834Y-108399563D01*
X166676443Y-108405227D01*
X166698387Y-108413079D01*
X166719457Y-108423044D01*
X166739448Y-108435026D01*
X166758168Y-108448910D01*
X166775438Y-108464562D01*
X166791090Y-108481832D01*
X166804974Y-108500552D01*
X166816956Y-108520543D01*
X166826921Y-108541613D01*
X166834773Y-108563557D01*
X166840437Y-108586166D01*
X166843856Y-108609221D01*
X166845000Y-108632500D01*
X166845000Y-109207500D01*
X166843856Y-109230779D01*
X166840437Y-109253834D01*
X166834773Y-109276443D01*
X166826921Y-109298387D01*
X166816956Y-109319457D01*
X166804974Y-109339448D01*
X166791090Y-109358168D01*
X166775438Y-109375438D01*
X166758168Y-109391090D01*
X166739448Y-109404974D01*
X166719457Y-109416956D01*
X166698387Y-109426921D01*
X166676443Y-109434773D01*
X166653834Y-109440437D01*
X166630779Y-109443856D01*
X166607500Y-109445000D01*
X166132500Y-109445000D01*
X166109221Y-109443856D01*
X166086166Y-109440437D01*
X166063557Y-109434773D01*
X166041613Y-109426921D01*
X166020543Y-109416956D01*
X166000552Y-109404974D01*
X165981832Y-109391090D01*
X165964562Y-109375438D01*
X165948910Y-109358168D01*
X165935026Y-109339448D01*
X165923044Y-109319457D01*
X165913079Y-109298387D01*
X165905227Y-109276443D01*
X165899563Y-109253834D01*
X165896144Y-109230779D01*
X165895000Y-109207500D01*
X165895000Y-108632500D01*
X165896144Y-108609221D01*
X165899563Y-108586166D01*
X165905227Y-108563557D01*
X165913079Y-108541613D01*
X165923044Y-108520543D01*
X165935026Y-108500552D01*
X165948910Y-108481832D01*
X165964562Y-108464562D01*
X165981832Y-108448910D01*
X166000552Y-108435026D01*
X166020543Y-108423044D01*
X166041613Y-108413079D01*
X166063557Y-108405227D01*
X166086166Y-108399563D01*
X166109221Y-108396144D01*
X166132500Y-108395000D01*
X166607500Y-108395000D01*
X166630779Y-108396144D01*
X166630779Y-108396144D01*
G37*
D14*
X166370000Y-108920000D03*
D13*
G36*
X166630779Y-106646144D02*
G01*
X166653834Y-106649563D01*
X166676443Y-106655227D01*
X166698387Y-106663079D01*
X166719457Y-106673044D01*
X166739448Y-106685026D01*
X166758168Y-106698910D01*
X166775438Y-106714562D01*
X166791090Y-106731832D01*
X166804974Y-106750552D01*
X166816956Y-106770543D01*
X166826921Y-106791613D01*
X166834773Y-106813557D01*
X166840437Y-106836166D01*
X166843856Y-106859221D01*
X166845000Y-106882500D01*
X166845000Y-107457500D01*
X166843856Y-107480779D01*
X166840437Y-107503834D01*
X166834773Y-107526443D01*
X166826921Y-107548387D01*
X166816956Y-107569457D01*
X166804974Y-107589448D01*
X166791090Y-107608168D01*
X166775438Y-107625438D01*
X166758168Y-107641090D01*
X166739448Y-107654974D01*
X166719457Y-107666956D01*
X166698387Y-107676921D01*
X166676443Y-107684773D01*
X166653834Y-107690437D01*
X166630779Y-107693856D01*
X166607500Y-107695000D01*
X166132500Y-107695000D01*
X166109221Y-107693856D01*
X166086166Y-107690437D01*
X166063557Y-107684773D01*
X166041613Y-107676921D01*
X166020543Y-107666956D01*
X166000552Y-107654974D01*
X165981832Y-107641090D01*
X165964562Y-107625438D01*
X165948910Y-107608168D01*
X165935026Y-107589448D01*
X165923044Y-107569457D01*
X165913079Y-107548387D01*
X165905227Y-107526443D01*
X165899563Y-107503834D01*
X165896144Y-107480779D01*
X165895000Y-107457500D01*
X165895000Y-106882500D01*
X165896144Y-106859221D01*
X165899563Y-106836166D01*
X165905227Y-106813557D01*
X165913079Y-106791613D01*
X165923044Y-106770543D01*
X165935026Y-106750552D01*
X165948910Y-106731832D01*
X165964562Y-106714562D01*
X165981832Y-106698910D01*
X166000552Y-106685026D01*
X166020543Y-106673044D01*
X166041613Y-106663079D01*
X166063557Y-106655227D01*
X166086166Y-106649563D01*
X166109221Y-106646144D01*
X166132500Y-106645000D01*
X166607500Y-106645000D01*
X166630779Y-106646144D01*
X166630779Y-106646144D01*
G37*
D14*
X166370000Y-107170000D03*
D13*
G36*
X70110779Y-93056144D02*
G01*
X70133834Y-93059563D01*
X70156443Y-93065227D01*
X70178387Y-93073079D01*
X70199457Y-93083044D01*
X70219448Y-93095026D01*
X70238168Y-93108910D01*
X70255438Y-93124562D01*
X70271090Y-93141832D01*
X70284974Y-93160552D01*
X70296956Y-93180543D01*
X70306921Y-93201613D01*
X70314773Y-93223557D01*
X70320437Y-93246166D01*
X70323856Y-93269221D01*
X70325000Y-93292500D01*
X70325000Y-93867500D01*
X70323856Y-93890779D01*
X70320437Y-93913834D01*
X70314773Y-93936443D01*
X70306921Y-93958387D01*
X70296956Y-93979457D01*
X70284974Y-93999448D01*
X70271090Y-94018168D01*
X70255438Y-94035438D01*
X70238168Y-94051090D01*
X70219448Y-94064974D01*
X70199457Y-94076956D01*
X70178387Y-94086921D01*
X70156443Y-94094773D01*
X70133834Y-94100437D01*
X70110779Y-94103856D01*
X70087500Y-94105000D01*
X69612500Y-94105000D01*
X69589221Y-94103856D01*
X69566166Y-94100437D01*
X69543557Y-94094773D01*
X69521613Y-94086921D01*
X69500543Y-94076956D01*
X69480552Y-94064974D01*
X69461832Y-94051090D01*
X69444562Y-94035438D01*
X69428910Y-94018168D01*
X69415026Y-93999448D01*
X69403044Y-93979457D01*
X69393079Y-93958387D01*
X69385227Y-93936443D01*
X69379563Y-93913834D01*
X69376144Y-93890779D01*
X69375000Y-93867500D01*
X69375000Y-93292500D01*
X69376144Y-93269221D01*
X69379563Y-93246166D01*
X69385227Y-93223557D01*
X69393079Y-93201613D01*
X69403044Y-93180543D01*
X69415026Y-93160552D01*
X69428910Y-93141832D01*
X69444562Y-93124562D01*
X69461832Y-93108910D01*
X69480552Y-93095026D01*
X69500543Y-93083044D01*
X69521613Y-93073079D01*
X69543557Y-93065227D01*
X69566166Y-93059563D01*
X69589221Y-93056144D01*
X69612500Y-93055000D01*
X70087500Y-93055000D01*
X70110779Y-93056144D01*
X70110779Y-93056144D01*
G37*
D14*
X69850000Y-93580000D03*
D13*
G36*
X70110779Y-91306144D02*
G01*
X70133834Y-91309563D01*
X70156443Y-91315227D01*
X70178387Y-91323079D01*
X70199457Y-91333044D01*
X70219448Y-91345026D01*
X70238168Y-91358910D01*
X70255438Y-91374562D01*
X70271090Y-91391832D01*
X70284974Y-91410552D01*
X70296956Y-91430543D01*
X70306921Y-91451613D01*
X70314773Y-91473557D01*
X70320437Y-91496166D01*
X70323856Y-91519221D01*
X70325000Y-91542500D01*
X70325000Y-92117500D01*
X70323856Y-92140779D01*
X70320437Y-92163834D01*
X70314773Y-92186443D01*
X70306921Y-92208387D01*
X70296956Y-92229457D01*
X70284974Y-92249448D01*
X70271090Y-92268168D01*
X70255438Y-92285438D01*
X70238168Y-92301090D01*
X70219448Y-92314974D01*
X70199457Y-92326956D01*
X70178387Y-92336921D01*
X70156443Y-92344773D01*
X70133834Y-92350437D01*
X70110779Y-92353856D01*
X70087500Y-92355000D01*
X69612500Y-92355000D01*
X69589221Y-92353856D01*
X69566166Y-92350437D01*
X69543557Y-92344773D01*
X69521613Y-92336921D01*
X69500543Y-92326956D01*
X69480552Y-92314974D01*
X69461832Y-92301090D01*
X69444562Y-92285438D01*
X69428910Y-92268168D01*
X69415026Y-92249448D01*
X69403044Y-92229457D01*
X69393079Y-92208387D01*
X69385227Y-92186443D01*
X69379563Y-92163834D01*
X69376144Y-92140779D01*
X69375000Y-92117500D01*
X69375000Y-91542500D01*
X69376144Y-91519221D01*
X69379563Y-91496166D01*
X69385227Y-91473557D01*
X69393079Y-91451613D01*
X69403044Y-91430543D01*
X69415026Y-91410552D01*
X69428910Y-91391832D01*
X69444562Y-91374562D01*
X69461832Y-91358910D01*
X69480552Y-91345026D01*
X69500543Y-91333044D01*
X69521613Y-91323079D01*
X69543557Y-91315227D01*
X69566166Y-91309563D01*
X69589221Y-91306144D01*
X69612500Y-91305000D01*
X70087500Y-91305000D01*
X70110779Y-91306144D01*
X70110779Y-91306144D01*
G37*
D14*
X69850000Y-91830000D03*
D13*
G36*
X170579505Y-103087204D02*
G01*
X170603773Y-103090804D01*
X170627572Y-103096765D01*
X170650671Y-103105030D01*
X170672850Y-103115520D01*
X170693893Y-103128132D01*
X170713599Y-103142747D01*
X170731777Y-103159223D01*
X170748253Y-103177401D01*
X170762868Y-103197107D01*
X170775480Y-103218150D01*
X170785970Y-103240329D01*
X170794235Y-103263428D01*
X170800196Y-103287227D01*
X170803796Y-103311495D01*
X170805000Y-103335999D01*
X170805000Y-103886001D01*
X170803796Y-103910505D01*
X170800196Y-103934773D01*
X170794235Y-103958572D01*
X170785970Y-103981671D01*
X170775480Y-104003850D01*
X170762868Y-104024893D01*
X170748253Y-104044599D01*
X170731777Y-104062777D01*
X170713599Y-104079253D01*
X170693893Y-104093868D01*
X170672850Y-104106480D01*
X170650671Y-104116970D01*
X170627572Y-104125235D01*
X170603773Y-104131196D01*
X170579505Y-104134796D01*
X170555001Y-104136000D01*
X169804999Y-104136000D01*
X169780495Y-104134796D01*
X169756227Y-104131196D01*
X169732428Y-104125235D01*
X169709329Y-104116970D01*
X169687150Y-104106480D01*
X169666107Y-104093868D01*
X169646401Y-104079253D01*
X169628223Y-104062777D01*
X169611747Y-104044599D01*
X169597132Y-104024893D01*
X169584520Y-104003850D01*
X169574030Y-103981671D01*
X169565765Y-103958572D01*
X169559804Y-103934773D01*
X169556204Y-103910505D01*
X169555000Y-103886001D01*
X169555000Y-103335999D01*
X169556204Y-103311495D01*
X169559804Y-103287227D01*
X169565765Y-103263428D01*
X169574030Y-103240329D01*
X169584520Y-103218150D01*
X169597132Y-103197107D01*
X169611747Y-103177401D01*
X169628223Y-103159223D01*
X169646401Y-103142747D01*
X169666107Y-103128132D01*
X169687150Y-103115520D01*
X169709329Y-103105030D01*
X169732428Y-103096765D01*
X169756227Y-103090804D01*
X169780495Y-103087204D01*
X169804999Y-103086000D01*
X170555001Y-103086000D01*
X170579505Y-103087204D01*
X170579505Y-103087204D01*
G37*
D15*
X170180000Y-103611000D03*
D13*
G36*
X172179505Y-103087204D02*
G01*
X172203773Y-103090804D01*
X172227572Y-103096765D01*
X172250671Y-103105030D01*
X172272850Y-103115520D01*
X172293893Y-103128132D01*
X172313599Y-103142747D01*
X172331777Y-103159223D01*
X172348253Y-103177401D01*
X172362868Y-103197107D01*
X172375480Y-103218150D01*
X172385970Y-103240329D01*
X172394235Y-103263428D01*
X172400196Y-103287227D01*
X172403796Y-103311495D01*
X172405000Y-103335999D01*
X172405000Y-103886001D01*
X172403796Y-103910505D01*
X172400196Y-103934773D01*
X172394235Y-103958572D01*
X172385970Y-103981671D01*
X172375480Y-104003850D01*
X172362868Y-104024893D01*
X172348253Y-104044599D01*
X172331777Y-104062777D01*
X172313599Y-104079253D01*
X172293893Y-104093868D01*
X172272850Y-104106480D01*
X172250671Y-104116970D01*
X172227572Y-104125235D01*
X172203773Y-104131196D01*
X172179505Y-104134796D01*
X172155001Y-104136000D01*
X171404999Y-104136000D01*
X171380495Y-104134796D01*
X171356227Y-104131196D01*
X171332428Y-104125235D01*
X171309329Y-104116970D01*
X171287150Y-104106480D01*
X171266107Y-104093868D01*
X171246401Y-104079253D01*
X171228223Y-104062777D01*
X171211747Y-104044599D01*
X171197132Y-104024893D01*
X171184520Y-104003850D01*
X171174030Y-103981671D01*
X171165765Y-103958572D01*
X171159804Y-103934773D01*
X171156204Y-103910505D01*
X171155000Y-103886001D01*
X171155000Y-103335999D01*
X171156204Y-103311495D01*
X171159804Y-103287227D01*
X171165765Y-103263428D01*
X171174030Y-103240329D01*
X171184520Y-103218150D01*
X171197132Y-103197107D01*
X171211747Y-103177401D01*
X171228223Y-103159223D01*
X171246401Y-103142747D01*
X171266107Y-103128132D01*
X171287150Y-103115520D01*
X171309329Y-103105030D01*
X171332428Y-103096765D01*
X171356227Y-103090804D01*
X171380495Y-103087204D01*
X171404999Y-103086000D01*
X172155001Y-103086000D01*
X172179505Y-103087204D01*
X172179505Y-103087204D01*
G37*
D15*
X171780000Y-103611000D03*
D13*
G36*
X161559505Y-103087204D02*
G01*
X161583773Y-103090804D01*
X161607572Y-103096765D01*
X161630671Y-103105030D01*
X161652850Y-103115520D01*
X161673893Y-103128132D01*
X161693599Y-103142747D01*
X161711777Y-103159223D01*
X161728253Y-103177401D01*
X161742868Y-103197107D01*
X161755480Y-103218150D01*
X161765970Y-103240329D01*
X161774235Y-103263428D01*
X161780196Y-103287227D01*
X161783796Y-103311495D01*
X161785000Y-103335999D01*
X161785000Y-103886001D01*
X161783796Y-103910505D01*
X161780196Y-103934773D01*
X161774235Y-103958572D01*
X161765970Y-103981671D01*
X161755480Y-104003850D01*
X161742868Y-104024893D01*
X161728253Y-104044599D01*
X161711777Y-104062777D01*
X161693599Y-104079253D01*
X161673893Y-104093868D01*
X161652850Y-104106480D01*
X161630671Y-104116970D01*
X161607572Y-104125235D01*
X161583773Y-104131196D01*
X161559505Y-104134796D01*
X161535001Y-104136000D01*
X160784999Y-104136000D01*
X160760495Y-104134796D01*
X160736227Y-104131196D01*
X160712428Y-104125235D01*
X160689329Y-104116970D01*
X160667150Y-104106480D01*
X160646107Y-104093868D01*
X160626401Y-104079253D01*
X160608223Y-104062777D01*
X160591747Y-104044599D01*
X160577132Y-104024893D01*
X160564520Y-104003850D01*
X160554030Y-103981671D01*
X160545765Y-103958572D01*
X160539804Y-103934773D01*
X160536204Y-103910505D01*
X160535000Y-103886001D01*
X160535000Y-103335999D01*
X160536204Y-103311495D01*
X160539804Y-103287227D01*
X160545765Y-103263428D01*
X160554030Y-103240329D01*
X160564520Y-103218150D01*
X160577132Y-103197107D01*
X160591747Y-103177401D01*
X160608223Y-103159223D01*
X160626401Y-103142747D01*
X160646107Y-103128132D01*
X160667150Y-103115520D01*
X160689329Y-103105030D01*
X160712428Y-103096765D01*
X160736227Y-103090804D01*
X160760495Y-103087204D01*
X160784999Y-103086000D01*
X161535001Y-103086000D01*
X161559505Y-103087204D01*
X161559505Y-103087204D01*
G37*
D15*
X161160000Y-103611000D03*
D13*
G36*
X163159505Y-103087204D02*
G01*
X163183773Y-103090804D01*
X163207572Y-103096765D01*
X163230671Y-103105030D01*
X163252850Y-103115520D01*
X163273893Y-103128132D01*
X163293599Y-103142747D01*
X163311777Y-103159223D01*
X163328253Y-103177401D01*
X163342868Y-103197107D01*
X163355480Y-103218150D01*
X163365970Y-103240329D01*
X163374235Y-103263428D01*
X163380196Y-103287227D01*
X163383796Y-103311495D01*
X163385000Y-103335999D01*
X163385000Y-103886001D01*
X163383796Y-103910505D01*
X163380196Y-103934773D01*
X163374235Y-103958572D01*
X163365970Y-103981671D01*
X163355480Y-104003850D01*
X163342868Y-104024893D01*
X163328253Y-104044599D01*
X163311777Y-104062777D01*
X163293599Y-104079253D01*
X163273893Y-104093868D01*
X163252850Y-104106480D01*
X163230671Y-104116970D01*
X163207572Y-104125235D01*
X163183773Y-104131196D01*
X163159505Y-104134796D01*
X163135001Y-104136000D01*
X162384999Y-104136000D01*
X162360495Y-104134796D01*
X162336227Y-104131196D01*
X162312428Y-104125235D01*
X162289329Y-104116970D01*
X162267150Y-104106480D01*
X162246107Y-104093868D01*
X162226401Y-104079253D01*
X162208223Y-104062777D01*
X162191747Y-104044599D01*
X162177132Y-104024893D01*
X162164520Y-104003850D01*
X162154030Y-103981671D01*
X162145765Y-103958572D01*
X162139804Y-103934773D01*
X162136204Y-103910505D01*
X162135000Y-103886001D01*
X162135000Y-103335999D01*
X162136204Y-103311495D01*
X162139804Y-103287227D01*
X162145765Y-103263428D01*
X162154030Y-103240329D01*
X162164520Y-103218150D01*
X162177132Y-103197107D01*
X162191747Y-103177401D01*
X162208223Y-103159223D01*
X162226401Y-103142747D01*
X162246107Y-103128132D01*
X162267150Y-103115520D01*
X162289329Y-103105030D01*
X162312428Y-103096765D01*
X162336227Y-103090804D01*
X162360495Y-103087204D01*
X162384999Y-103086000D01*
X163135001Y-103086000D01*
X163159505Y-103087204D01*
X163159505Y-103087204D01*
G37*
D15*
X162760000Y-103611000D03*
D13*
G36*
X73259505Y-88376204D02*
G01*
X73283773Y-88379804D01*
X73307572Y-88385765D01*
X73330671Y-88394030D01*
X73352850Y-88404520D01*
X73373893Y-88417132D01*
X73393599Y-88431747D01*
X73411777Y-88448223D01*
X73428253Y-88466401D01*
X73442868Y-88486107D01*
X73455480Y-88507150D01*
X73465970Y-88529329D01*
X73474235Y-88552428D01*
X73480196Y-88576227D01*
X73483796Y-88600495D01*
X73485000Y-88624999D01*
X73485000Y-89175001D01*
X73483796Y-89199505D01*
X73480196Y-89223773D01*
X73474235Y-89247572D01*
X73465970Y-89270671D01*
X73455480Y-89292850D01*
X73442868Y-89313893D01*
X73428253Y-89333599D01*
X73411777Y-89351777D01*
X73393599Y-89368253D01*
X73373893Y-89382868D01*
X73352850Y-89395480D01*
X73330671Y-89405970D01*
X73307572Y-89414235D01*
X73283773Y-89420196D01*
X73259505Y-89423796D01*
X73235001Y-89425000D01*
X72484999Y-89425000D01*
X72460495Y-89423796D01*
X72436227Y-89420196D01*
X72412428Y-89414235D01*
X72389329Y-89405970D01*
X72367150Y-89395480D01*
X72346107Y-89382868D01*
X72326401Y-89368253D01*
X72308223Y-89351777D01*
X72291747Y-89333599D01*
X72277132Y-89313893D01*
X72264520Y-89292850D01*
X72254030Y-89270671D01*
X72245765Y-89247572D01*
X72239804Y-89223773D01*
X72236204Y-89199505D01*
X72235000Y-89175001D01*
X72235000Y-88624999D01*
X72236204Y-88600495D01*
X72239804Y-88576227D01*
X72245765Y-88552428D01*
X72254030Y-88529329D01*
X72264520Y-88507150D01*
X72277132Y-88486107D01*
X72291747Y-88466401D01*
X72308223Y-88448223D01*
X72326401Y-88431747D01*
X72346107Y-88417132D01*
X72367150Y-88404520D01*
X72389329Y-88394030D01*
X72412428Y-88385765D01*
X72436227Y-88379804D01*
X72460495Y-88376204D01*
X72484999Y-88375000D01*
X73235001Y-88375000D01*
X73259505Y-88376204D01*
X73259505Y-88376204D01*
G37*
D15*
X72860000Y-88900000D03*
D13*
G36*
X74859505Y-88376204D02*
G01*
X74883773Y-88379804D01*
X74907572Y-88385765D01*
X74930671Y-88394030D01*
X74952850Y-88404520D01*
X74973893Y-88417132D01*
X74993599Y-88431747D01*
X75011777Y-88448223D01*
X75028253Y-88466401D01*
X75042868Y-88486107D01*
X75055480Y-88507150D01*
X75065970Y-88529329D01*
X75074235Y-88552428D01*
X75080196Y-88576227D01*
X75083796Y-88600495D01*
X75085000Y-88624999D01*
X75085000Y-89175001D01*
X75083796Y-89199505D01*
X75080196Y-89223773D01*
X75074235Y-89247572D01*
X75065970Y-89270671D01*
X75055480Y-89292850D01*
X75042868Y-89313893D01*
X75028253Y-89333599D01*
X75011777Y-89351777D01*
X74993599Y-89368253D01*
X74973893Y-89382868D01*
X74952850Y-89395480D01*
X74930671Y-89405970D01*
X74907572Y-89414235D01*
X74883773Y-89420196D01*
X74859505Y-89423796D01*
X74835001Y-89425000D01*
X74084999Y-89425000D01*
X74060495Y-89423796D01*
X74036227Y-89420196D01*
X74012428Y-89414235D01*
X73989329Y-89405970D01*
X73967150Y-89395480D01*
X73946107Y-89382868D01*
X73926401Y-89368253D01*
X73908223Y-89351777D01*
X73891747Y-89333599D01*
X73877132Y-89313893D01*
X73864520Y-89292850D01*
X73854030Y-89270671D01*
X73845765Y-89247572D01*
X73839804Y-89223773D01*
X73836204Y-89199505D01*
X73835000Y-89175001D01*
X73835000Y-88624999D01*
X73836204Y-88600495D01*
X73839804Y-88576227D01*
X73845765Y-88552428D01*
X73854030Y-88529329D01*
X73864520Y-88507150D01*
X73877132Y-88486107D01*
X73891747Y-88466401D01*
X73908223Y-88448223D01*
X73926401Y-88431747D01*
X73946107Y-88417132D01*
X73967150Y-88404520D01*
X73989329Y-88394030D01*
X74012428Y-88385765D01*
X74036227Y-88379804D01*
X74060495Y-88376204D01*
X74084999Y-88375000D01*
X74835001Y-88375000D01*
X74859505Y-88376204D01*
X74859505Y-88376204D01*
G37*
D15*
X74460000Y-88900000D03*
D13*
G36*
X64839505Y-88376204D02*
G01*
X64863773Y-88379804D01*
X64887572Y-88385765D01*
X64910671Y-88394030D01*
X64932850Y-88404520D01*
X64953893Y-88417132D01*
X64973599Y-88431747D01*
X64991777Y-88448223D01*
X65008253Y-88466401D01*
X65022868Y-88486107D01*
X65035480Y-88507150D01*
X65045970Y-88529329D01*
X65054235Y-88552428D01*
X65060196Y-88576227D01*
X65063796Y-88600495D01*
X65065000Y-88624999D01*
X65065000Y-89175001D01*
X65063796Y-89199505D01*
X65060196Y-89223773D01*
X65054235Y-89247572D01*
X65045970Y-89270671D01*
X65035480Y-89292850D01*
X65022868Y-89313893D01*
X65008253Y-89333599D01*
X64991777Y-89351777D01*
X64973599Y-89368253D01*
X64953893Y-89382868D01*
X64932850Y-89395480D01*
X64910671Y-89405970D01*
X64887572Y-89414235D01*
X64863773Y-89420196D01*
X64839505Y-89423796D01*
X64815001Y-89425000D01*
X64064999Y-89425000D01*
X64040495Y-89423796D01*
X64016227Y-89420196D01*
X63992428Y-89414235D01*
X63969329Y-89405970D01*
X63947150Y-89395480D01*
X63926107Y-89382868D01*
X63906401Y-89368253D01*
X63888223Y-89351777D01*
X63871747Y-89333599D01*
X63857132Y-89313893D01*
X63844520Y-89292850D01*
X63834030Y-89270671D01*
X63825765Y-89247572D01*
X63819804Y-89223773D01*
X63816204Y-89199505D01*
X63815000Y-89175001D01*
X63815000Y-88624999D01*
X63816204Y-88600495D01*
X63819804Y-88576227D01*
X63825765Y-88552428D01*
X63834030Y-88529329D01*
X63844520Y-88507150D01*
X63857132Y-88486107D01*
X63871747Y-88466401D01*
X63888223Y-88448223D01*
X63906401Y-88431747D01*
X63926107Y-88417132D01*
X63947150Y-88404520D01*
X63969329Y-88394030D01*
X63992428Y-88385765D01*
X64016227Y-88379804D01*
X64040495Y-88376204D01*
X64064999Y-88375000D01*
X64815001Y-88375000D01*
X64839505Y-88376204D01*
X64839505Y-88376204D01*
G37*
D15*
X64440000Y-88900000D03*
D13*
G36*
X66439505Y-88376204D02*
G01*
X66463773Y-88379804D01*
X66487572Y-88385765D01*
X66510671Y-88394030D01*
X66532850Y-88404520D01*
X66553893Y-88417132D01*
X66573599Y-88431747D01*
X66591777Y-88448223D01*
X66608253Y-88466401D01*
X66622868Y-88486107D01*
X66635480Y-88507150D01*
X66645970Y-88529329D01*
X66654235Y-88552428D01*
X66660196Y-88576227D01*
X66663796Y-88600495D01*
X66665000Y-88624999D01*
X66665000Y-89175001D01*
X66663796Y-89199505D01*
X66660196Y-89223773D01*
X66654235Y-89247572D01*
X66645970Y-89270671D01*
X66635480Y-89292850D01*
X66622868Y-89313893D01*
X66608253Y-89333599D01*
X66591777Y-89351777D01*
X66573599Y-89368253D01*
X66553893Y-89382868D01*
X66532850Y-89395480D01*
X66510671Y-89405970D01*
X66487572Y-89414235D01*
X66463773Y-89420196D01*
X66439505Y-89423796D01*
X66415001Y-89425000D01*
X65664999Y-89425000D01*
X65640495Y-89423796D01*
X65616227Y-89420196D01*
X65592428Y-89414235D01*
X65569329Y-89405970D01*
X65547150Y-89395480D01*
X65526107Y-89382868D01*
X65506401Y-89368253D01*
X65488223Y-89351777D01*
X65471747Y-89333599D01*
X65457132Y-89313893D01*
X65444520Y-89292850D01*
X65434030Y-89270671D01*
X65425765Y-89247572D01*
X65419804Y-89223773D01*
X65416204Y-89199505D01*
X65415000Y-89175001D01*
X65415000Y-88624999D01*
X65416204Y-88600495D01*
X65419804Y-88576227D01*
X65425765Y-88552428D01*
X65434030Y-88529329D01*
X65444520Y-88507150D01*
X65457132Y-88486107D01*
X65471747Y-88466401D01*
X65488223Y-88448223D01*
X65506401Y-88431747D01*
X65526107Y-88417132D01*
X65547150Y-88404520D01*
X65569329Y-88394030D01*
X65592428Y-88385765D01*
X65616227Y-88379804D01*
X65640495Y-88376204D01*
X65664999Y-88375000D01*
X66415001Y-88375000D01*
X66439505Y-88376204D01*
X66439505Y-88376204D01*
G37*
D15*
X66040000Y-88900000D03*
D16*
X165100000Y-108490000D03*
X167640000Y-109340000D03*
X167640000Y-110160000D03*
X165100000Y-110160000D03*
X166370000Y-108890000D03*
X166370000Y-110160000D03*
X165100000Y-109340000D03*
X167640000Y-108490000D03*
X71120000Y-93150000D03*
X68580000Y-93150000D03*
X69850000Y-94820000D03*
X68580000Y-94820000D03*
X71120000Y-94820000D03*
X71120000Y-94000000D03*
X68580000Y-94000000D03*
X175260000Y-100930000D03*
X176530000Y-100930000D03*
X177800000Y-100930000D03*
X69850000Y-93550000D03*
X177800000Y-106280000D03*
X176530000Y-106280000D03*
X175260000Y-106280000D03*
X59690000Y-91440000D03*
X58420000Y-91440000D03*
X57150000Y-91440000D03*
X59690000Y-86360000D03*
X58420000Y-86360000D03*
X57150000Y-86360000D03*
D17*
X74930000Y-91674500D02*
X96160000Y-91674500D01*
D18*
X96990000Y-91674500D02*
X117800000Y-91674500D01*
X96990000Y-96255500D02*
X117800000Y-96255500D01*
X118064500Y-96255500D02*
X138874500Y-96255500D01*
X118064500Y-100836500D02*
X138874500Y-100836500D01*
D17*
X139381000Y-100836500D02*
X160611000Y-100836500D01*
D19*
X58200000Y-88900000D02*
X63500000Y-88900000D01*
X69850000Y-90934990D02*
X69850000Y-90170000D01*
X66800000Y-88900000D02*
X72000000Y-88900000D01*
D17*
X74930000Y-88900000D02*
X96160000Y-88900000D01*
X139381000Y-103611000D02*
X160611000Y-103611000D01*
D19*
X166370000Y-106280000D02*
X166370000Y-105010000D01*
D20*
X170316810Y-103611000D02*
X170180000Y-103611000D01*
D19*
X163700000Y-103611000D02*
X169000000Y-103611000D01*
X172720000Y-103611000D02*
X177300000Y-103611000D01*
D20*
X68980000Y-93550000D02*
X68580000Y-93150000D01*
X69850000Y-93550000D02*
X68980000Y-93550000D01*
X69030000Y-93550000D02*
X68580000Y-94000000D01*
X69850000Y-93550000D02*
X69030000Y-93550000D01*
X69820000Y-93580000D02*
X68580000Y-94820000D01*
X69850000Y-93580000D02*
X69820000Y-93580000D01*
X69850000Y-93550000D02*
X69850000Y-94820000D01*
X70720000Y-93550000D02*
X71120000Y-93150000D01*
X69850000Y-93550000D02*
X70720000Y-93550000D01*
X70670000Y-93550000D02*
X71120000Y-94000000D01*
X69850000Y-93550000D02*
X70670000Y-93550000D01*
X69880000Y-93580000D02*
X71120000Y-94820000D01*
X69850000Y-93580000D02*
X69880000Y-93580000D01*
X167210000Y-108920000D02*
X167640000Y-108490000D01*
X166370000Y-108920000D02*
X167210000Y-108920000D01*
X167190000Y-108890000D02*
X167640000Y-109340000D01*
X166370000Y-108890000D02*
X167190000Y-108890000D01*
X166370000Y-108890000D02*
X167640000Y-110160000D01*
X166370000Y-108890000D02*
X166370000Y-110160000D01*
X166370000Y-108890000D02*
X165270000Y-109990000D01*
X165520000Y-108920000D02*
X165100000Y-109340000D01*
X166370000Y-108920000D02*
X165520000Y-108920000D01*
X165530000Y-108920000D02*
X165100000Y-108490000D01*
X166370000Y-108920000D02*
X165530000Y-108920000D01*
M02*
