G04 #@! TF.GenerationSoftware,KiCad,Pcbnew,5.1.2-f72e74a~84~ubuntu18.04.1*
G04 #@! TF.CreationDate,2019-11-21T14:14:44+01:00*
G04 #@! TF.ProjectId,FR4_proto,4652345f-7072-46f7-946f-2e6b69636164,rev?*
G04 #@! TF.SameCoordinates,Original*
G04 #@! TF.FileFunction,Soldermask,Top*
G04 #@! TF.FilePolarity,Negative*
%FSLAX46Y46*%
G04 Gerber Fmt 4.6, Leading zero omitted, Abs format (unit mm)*
G04 Created by KiCad (PCBNEW 5.1.2-f72e74a~84~ubuntu18.04.1) date 2019-11-21 14:14:44*
%MOMM*%
%LPD*%
G04 APERTURE LIST*
%ADD10C,0.100000*%
G04 APERTURE END LIST*
D10*
G36*
X166734499Y-108348445D02*
G01*
X166771995Y-108359820D01*
X166806554Y-108378292D01*
X166836847Y-108403153D01*
X166861708Y-108433446D01*
X166880180Y-108468005D01*
X166891555Y-108505501D01*
X166896000Y-108550638D01*
X166896000Y-109289362D01*
X166891555Y-109334499D01*
X166880180Y-109371995D01*
X166861708Y-109406554D01*
X166836847Y-109436847D01*
X166806554Y-109461708D01*
X166771995Y-109480180D01*
X166734499Y-109491555D01*
X166689362Y-109496000D01*
X166050638Y-109496000D01*
X166005501Y-109491555D01*
X165968005Y-109480180D01*
X165933446Y-109461708D01*
X165903153Y-109436847D01*
X165878292Y-109406554D01*
X165859820Y-109371995D01*
X165848445Y-109334499D01*
X165844000Y-109289362D01*
X165844000Y-108550638D01*
X165848445Y-108505501D01*
X165859820Y-108468005D01*
X165878292Y-108433446D01*
X165903153Y-108403153D01*
X165933446Y-108378292D01*
X165968005Y-108359820D01*
X166005501Y-108348445D01*
X166050638Y-108344000D01*
X166689362Y-108344000D01*
X166734499Y-108348445D01*
X166734499Y-108348445D01*
G37*
G36*
X166734499Y-106598445D02*
G01*
X166771995Y-106609820D01*
X166806554Y-106628292D01*
X166836847Y-106653153D01*
X166861708Y-106683446D01*
X166880180Y-106718005D01*
X166891555Y-106755501D01*
X166896000Y-106800638D01*
X166896000Y-107539362D01*
X166891555Y-107584499D01*
X166880180Y-107621995D01*
X166861708Y-107656554D01*
X166836847Y-107686847D01*
X166806554Y-107711708D01*
X166771995Y-107730180D01*
X166734499Y-107741555D01*
X166689362Y-107746000D01*
X166050638Y-107746000D01*
X166005501Y-107741555D01*
X165968005Y-107730180D01*
X165933446Y-107711708D01*
X165903153Y-107686847D01*
X165878292Y-107656554D01*
X165859820Y-107621995D01*
X165848445Y-107584499D01*
X165844000Y-107539362D01*
X165844000Y-106800638D01*
X165848445Y-106755501D01*
X165859820Y-106718005D01*
X165878292Y-106683446D01*
X165903153Y-106653153D01*
X165933446Y-106628292D01*
X165968005Y-106609820D01*
X166005501Y-106598445D01*
X166050638Y-106594000D01*
X166689362Y-106594000D01*
X166734499Y-106598445D01*
X166734499Y-106598445D01*
G37*
G36*
X178611000Y-106991000D02*
G01*
X174449000Y-106991000D01*
X174449000Y-105369000D01*
X178611000Y-105369000D01*
X178611000Y-106991000D01*
X178611000Y-106991000D01*
G37*
G36*
X178881000Y-104451000D02*
G01*
X174179000Y-104451000D01*
X174179000Y-102829000D01*
X178881000Y-102829000D01*
X178881000Y-104451000D01*
X178881000Y-104451000D01*
G37*
G36*
X170687811Y-103039605D02*
G01*
X170726867Y-103051453D01*
X170762862Y-103070693D01*
X170794414Y-103096586D01*
X170820307Y-103128138D01*
X170839547Y-103164133D01*
X170851395Y-103203189D01*
X170855603Y-103245918D01*
X170860383Y-103269951D01*
X170869761Y-103292590D01*
X170883374Y-103312964D01*
X170900701Y-103330291D01*
X170921076Y-103343905D01*
X170943715Y-103353283D01*
X170967748Y-103358063D01*
X170992252Y-103358063D01*
X171016285Y-103353283D01*
X171038924Y-103343905D01*
X171059298Y-103330292D01*
X171076625Y-103312965D01*
X171090239Y-103292590D01*
X171099617Y-103269951D01*
X171104397Y-103245918D01*
X171108605Y-103203189D01*
X171120453Y-103164133D01*
X171139693Y-103128138D01*
X171165586Y-103096586D01*
X171197138Y-103070693D01*
X171233133Y-103051453D01*
X171272189Y-103039605D01*
X171318949Y-103035000D01*
X172241051Y-103035000D01*
X172287811Y-103039605D01*
X172326867Y-103051453D01*
X172362862Y-103070693D01*
X172394414Y-103096586D01*
X172420307Y-103128138D01*
X172439547Y-103164133D01*
X172451395Y-103203189D01*
X172456000Y-103249949D01*
X172456000Y-103972051D01*
X172451395Y-104018811D01*
X172439547Y-104057867D01*
X172420307Y-104093862D01*
X172394414Y-104125414D01*
X172362862Y-104151307D01*
X172326867Y-104170547D01*
X172287811Y-104182395D01*
X172241051Y-104187000D01*
X171318949Y-104187000D01*
X171272189Y-104182395D01*
X171233133Y-104170547D01*
X171197138Y-104151307D01*
X171165586Y-104125414D01*
X171139693Y-104093862D01*
X171120453Y-104057867D01*
X171108605Y-104018811D01*
X171104397Y-103976082D01*
X171099617Y-103952049D01*
X171090239Y-103929410D01*
X171076626Y-103909036D01*
X171059299Y-103891709D01*
X171038924Y-103878095D01*
X171016285Y-103868717D01*
X170992252Y-103863937D01*
X170967748Y-103863937D01*
X170943715Y-103868717D01*
X170921076Y-103878095D01*
X170900702Y-103891708D01*
X170883375Y-103909035D01*
X170869761Y-103929410D01*
X170860383Y-103952049D01*
X170855603Y-103976082D01*
X170851395Y-104018811D01*
X170839547Y-104057867D01*
X170820307Y-104093862D01*
X170794414Y-104125414D01*
X170762862Y-104151307D01*
X170726867Y-104170547D01*
X170687811Y-104182395D01*
X170641051Y-104187000D01*
X169718949Y-104187000D01*
X169672189Y-104182395D01*
X169633133Y-104170547D01*
X169597138Y-104151307D01*
X169565586Y-104125414D01*
X169539693Y-104093862D01*
X169520453Y-104057867D01*
X169508605Y-104018811D01*
X169504000Y-103972051D01*
X169504000Y-103249949D01*
X169508605Y-103203189D01*
X169520453Y-103164133D01*
X169539693Y-103128138D01*
X169565586Y-103096586D01*
X169597138Y-103070693D01*
X169633133Y-103051453D01*
X169672189Y-103039605D01*
X169718949Y-103035000D01*
X170641051Y-103035000D01*
X170687811Y-103039605D01*
X170687811Y-103039605D01*
G37*
G36*
X161667811Y-103039605D02*
G01*
X161706867Y-103051453D01*
X161742862Y-103070693D01*
X161774414Y-103096586D01*
X161800307Y-103128138D01*
X161819547Y-103164133D01*
X161831395Y-103203189D01*
X161835603Y-103245918D01*
X161840383Y-103269951D01*
X161849761Y-103292590D01*
X161863374Y-103312964D01*
X161880701Y-103330291D01*
X161901076Y-103343905D01*
X161923715Y-103353283D01*
X161947748Y-103358063D01*
X161972252Y-103358063D01*
X161996285Y-103353283D01*
X162018924Y-103343905D01*
X162039298Y-103330292D01*
X162056625Y-103312965D01*
X162070239Y-103292590D01*
X162079617Y-103269951D01*
X162084397Y-103245918D01*
X162088605Y-103203189D01*
X162100453Y-103164133D01*
X162119693Y-103128138D01*
X162145586Y-103096586D01*
X162177138Y-103070693D01*
X162213133Y-103051453D01*
X162252189Y-103039605D01*
X162298949Y-103035000D01*
X163221051Y-103035000D01*
X163267811Y-103039605D01*
X163306867Y-103051453D01*
X163342862Y-103070693D01*
X163374414Y-103096586D01*
X163400307Y-103128138D01*
X163419547Y-103164133D01*
X163431395Y-103203189D01*
X163436000Y-103249949D01*
X163436000Y-103972051D01*
X163431395Y-104018811D01*
X163419547Y-104057867D01*
X163400307Y-104093862D01*
X163374414Y-104125414D01*
X163342862Y-104151307D01*
X163306867Y-104170547D01*
X163267811Y-104182395D01*
X163221051Y-104187000D01*
X162298949Y-104187000D01*
X162252189Y-104182395D01*
X162213133Y-104170547D01*
X162177138Y-104151307D01*
X162145586Y-104125414D01*
X162119693Y-104093862D01*
X162100453Y-104057867D01*
X162088605Y-104018811D01*
X162084397Y-103976082D01*
X162079617Y-103952049D01*
X162070239Y-103929410D01*
X162056626Y-103909036D01*
X162039299Y-103891709D01*
X162018924Y-103878095D01*
X161996285Y-103868717D01*
X161972252Y-103863937D01*
X161947748Y-103863937D01*
X161923715Y-103868717D01*
X161901076Y-103878095D01*
X161880702Y-103891708D01*
X161863375Y-103909035D01*
X161849761Y-103929410D01*
X161840383Y-103952049D01*
X161835603Y-103976082D01*
X161831395Y-104018811D01*
X161819547Y-104057867D01*
X161800307Y-104093862D01*
X161774414Y-104125414D01*
X161742862Y-104151307D01*
X161706867Y-104170547D01*
X161667811Y-104182395D01*
X161621051Y-104187000D01*
X160698949Y-104187000D01*
X160652189Y-104182395D01*
X160613133Y-104170547D01*
X160577138Y-104151307D01*
X160545586Y-104125414D01*
X160519693Y-104093862D01*
X160500453Y-104057867D01*
X160488605Y-104018811D01*
X160484000Y-103972051D01*
X160484000Y-103249949D01*
X160488605Y-103203189D01*
X160500453Y-103164133D01*
X160519693Y-103128138D01*
X160545586Y-103096586D01*
X160577138Y-103070693D01*
X160613133Y-103051453D01*
X160652189Y-103039605D01*
X160698949Y-103035000D01*
X161621051Y-103035000D01*
X161667811Y-103039605D01*
X161667811Y-103039605D01*
G37*
G36*
X178611000Y-101911000D02*
G01*
X174449000Y-101911000D01*
X174449000Y-100289000D01*
X178611000Y-100289000D01*
X178611000Y-101911000D01*
X178611000Y-101911000D01*
G37*
G36*
X70214499Y-93008445D02*
G01*
X70251995Y-93019820D01*
X70286554Y-93038292D01*
X70316847Y-93063153D01*
X70341708Y-93093446D01*
X70360180Y-93128005D01*
X70371555Y-93165501D01*
X70376000Y-93210638D01*
X70376000Y-93949362D01*
X70371555Y-93994499D01*
X70360180Y-94031995D01*
X70341708Y-94066554D01*
X70316847Y-94096847D01*
X70286554Y-94121708D01*
X70251995Y-94140180D01*
X70214499Y-94151555D01*
X70169362Y-94156000D01*
X69530638Y-94156000D01*
X69485501Y-94151555D01*
X69448005Y-94140180D01*
X69413446Y-94121708D01*
X69383153Y-94096847D01*
X69358292Y-94066554D01*
X69339820Y-94031995D01*
X69328445Y-93994499D01*
X69324000Y-93949362D01*
X69324000Y-93210638D01*
X69328445Y-93165501D01*
X69339820Y-93128005D01*
X69358292Y-93093446D01*
X69383153Y-93063153D01*
X69413446Y-93038292D01*
X69448005Y-93019820D01*
X69485501Y-93008445D01*
X69530638Y-93004000D01*
X70169362Y-93004000D01*
X70214499Y-93008445D01*
X70214499Y-93008445D01*
G37*
G36*
X70214499Y-91258445D02*
G01*
X70251995Y-91269820D01*
X70286554Y-91288292D01*
X70316847Y-91313153D01*
X70341708Y-91343446D01*
X70360180Y-91378005D01*
X70371555Y-91415501D01*
X70376000Y-91460638D01*
X70376000Y-92199362D01*
X70371555Y-92244499D01*
X70360180Y-92281995D01*
X70341708Y-92316554D01*
X70316847Y-92346847D01*
X70286554Y-92371708D01*
X70251995Y-92390180D01*
X70214499Y-92401555D01*
X70169362Y-92406000D01*
X69530638Y-92406000D01*
X69485501Y-92401555D01*
X69448005Y-92390180D01*
X69413446Y-92371708D01*
X69383153Y-92346847D01*
X69358292Y-92316554D01*
X69339820Y-92281995D01*
X69328445Y-92244499D01*
X69324000Y-92199362D01*
X69324000Y-91460638D01*
X69328445Y-91415501D01*
X69339820Y-91378005D01*
X69358292Y-91343446D01*
X69383153Y-91313153D01*
X69413446Y-91288292D01*
X69448005Y-91269820D01*
X69485501Y-91258445D01*
X69530638Y-91254000D01*
X70169362Y-91254000D01*
X70214499Y-91258445D01*
X70214499Y-91258445D01*
G37*
G36*
X60501000Y-92251000D02*
G01*
X56339000Y-92251000D01*
X56339000Y-90629000D01*
X60501000Y-90629000D01*
X60501000Y-92251000D01*
X60501000Y-92251000D01*
G37*
G36*
X60771000Y-89711000D02*
G01*
X56069000Y-89711000D01*
X56069000Y-88089000D01*
X60771000Y-88089000D01*
X60771000Y-89711000D01*
X60771000Y-89711000D01*
G37*
G36*
X73367811Y-88328605D02*
G01*
X73406867Y-88340453D01*
X73442862Y-88359693D01*
X73474414Y-88385586D01*
X73500307Y-88417138D01*
X73519547Y-88453133D01*
X73531395Y-88492189D01*
X73535603Y-88534918D01*
X73540383Y-88558951D01*
X73549761Y-88581590D01*
X73563374Y-88601964D01*
X73580701Y-88619291D01*
X73601076Y-88632905D01*
X73623715Y-88642283D01*
X73647748Y-88647063D01*
X73672252Y-88647063D01*
X73696285Y-88642283D01*
X73718924Y-88632905D01*
X73739298Y-88619292D01*
X73756625Y-88601965D01*
X73770239Y-88581590D01*
X73779617Y-88558951D01*
X73784397Y-88534918D01*
X73788605Y-88492189D01*
X73800453Y-88453133D01*
X73819693Y-88417138D01*
X73845586Y-88385586D01*
X73877138Y-88359693D01*
X73913133Y-88340453D01*
X73952189Y-88328605D01*
X73998949Y-88324000D01*
X74921051Y-88324000D01*
X74967811Y-88328605D01*
X75006867Y-88340453D01*
X75042862Y-88359693D01*
X75074414Y-88385586D01*
X75100307Y-88417138D01*
X75119547Y-88453133D01*
X75131395Y-88492189D01*
X75136000Y-88538949D01*
X75136000Y-89261051D01*
X75131395Y-89307811D01*
X75119547Y-89346867D01*
X75100307Y-89382862D01*
X75074414Y-89414414D01*
X75042862Y-89440307D01*
X75006867Y-89459547D01*
X74967811Y-89471395D01*
X74921051Y-89476000D01*
X73998949Y-89476000D01*
X73952189Y-89471395D01*
X73913133Y-89459547D01*
X73877138Y-89440307D01*
X73845586Y-89414414D01*
X73819693Y-89382862D01*
X73800453Y-89346867D01*
X73788605Y-89307811D01*
X73784397Y-89265082D01*
X73779617Y-89241049D01*
X73770239Y-89218410D01*
X73756626Y-89198036D01*
X73739299Y-89180709D01*
X73718924Y-89167095D01*
X73696285Y-89157717D01*
X73672252Y-89152937D01*
X73647748Y-89152937D01*
X73623715Y-89157717D01*
X73601076Y-89167095D01*
X73580702Y-89180708D01*
X73563375Y-89198035D01*
X73549761Y-89218410D01*
X73540383Y-89241049D01*
X73535603Y-89265082D01*
X73531395Y-89307811D01*
X73519547Y-89346867D01*
X73500307Y-89382862D01*
X73474414Y-89414414D01*
X73442862Y-89440307D01*
X73406867Y-89459547D01*
X73367811Y-89471395D01*
X73321051Y-89476000D01*
X72398949Y-89476000D01*
X72352189Y-89471395D01*
X72313133Y-89459547D01*
X72277138Y-89440307D01*
X72245586Y-89414414D01*
X72219693Y-89382862D01*
X72200453Y-89346867D01*
X72188605Y-89307811D01*
X72184000Y-89261051D01*
X72184000Y-88538949D01*
X72188605Y-88492189D01*
X72200453Y-88453133D01*
X72219693Y-88417138D01*
X72245586Y-88385586D01*
X72277138Y-88359693D01*
X72313133Y-88340453D01*
X72352189Y-88328605D01*
X72398949Y-88324000D01*
X73321051Y-88324000D01*
X73367811Y-88328605D01*
X73367811Y-88328605D01*
G37*
G36*
X64947811Y-88328605D02*
G01*
X64986867Y-88340453D01*
X65022862Y-88359693D01*
X65054414Y-88385586D01*
X65080307Y-88417138D01*
X65099547Y-88453133D01*
X65111395Y-88492189D01*
X65115603Y-88534918D01*
X65120383Y-88558951D01*
X65129761Y-88581590D01*
X65143374Y-88601964D01*
X65160701Y-88619291D01*
X65181076Y-88632905D01*
X65203715Y-88642283D01*
X65227748Y-88647063D01*
X65252252Y-88647063D01*
X65276285Y-88642283D01*
X65298924Y-88632905D01*
X65319298Y-88619292D01*
X65336625Y-88601965D01*
X65350239Y-88581590D01*
X65359617Y-88558951D01*
X65364397Y-88534918D01*
X65368605Y-88492189D01*
X65380453Y-88453133D01*
X65399693Y-88417138D01*
X65425586Y-88385586D01*
X65457138Y-88359693D01*
X65493133Y-88340453D01*
X65532189Y-88328605D01*
X65578949Y-88324000D01*
X66501051Y-88324000D01*
X66547811Y-88328605D01*
X66586867Y-88340453D01*
X66622862Y-88359693D01*
X66654414Y-88385586D01*
X66680307Y-88417138D01*
X66699547Y-88453133D01*
X66711395Y-88492189D01*
X66716000Y-88538949D01*
X66716000Y-89261051D01*
X66711395Y-89307811D01*
X66699547Y-89346867D01*
X66680307Y-89382862D01*
X66654414Y-89414414D01*
X66622862Y-89440307D01*
X66586867Y-89459547D01*
X66547811Y-89471395D01*
X66501051Y-89476000D01*
X65578949Y-89476000D01*
X65532189Y-89471395D01*
X65493133Y-89459547D01*
X65457138Y-89440307D01*
X65425586Y-89414414D01*
X65399693Y-89382862D01*
X65380453Y-89346867D01*
X65368605Y-89307811D01*
X65364397Y-89265082D01*
X65359617Y-89241049D01*
X65350239Y-89218410D01*
X65336626Y-89198036D01*
X65319299Y-89180709D01*
X65298924Y-89167095D01*
X65276285Y-89157717D01*
X65252252Y-89152937D01*
X65227748Y-89152937D01*
X65203715Y-89157717D01*
X65181076Y-89167095D01*
X65160702Y-89180708D01*
X65143375Y-89198035D01*
X65129761Y-89218410D01*
X65120383Y-89241049D01*
X65115603Y-89265082D01*
X65111395Y-89307811D01*
X65099547Y-89346867D01*
X65080307Y-89382862D01*
X65054414Y-89414414D01*
X65022862Y-89440307D01*
X64986867Y-89459547D01*
X64947811Y-89471395D01*
X64901051Y-89476000D01*
X63978949Y-89476000D01*
X63932189Y-89471395D01*
X63893133Y-89459547D01*
X63857138Y-89440307D01*
X63825586Y-89414414D01*
X63799693Y-89382862D01*
X63780453Y-89346867D01*
X63768605Y-89307811D01*
X63764000Y-89261051D01*
X63764000Y-88538949D01*
X63768605Y-88492189D01*
X63780453Y-88453133D01*
X63799693Y-88417138D01*
X63825586Y-88385586D01*
X63857138Y-88359693D01*
X63893133Y-88340453D01*
X63932189Y-88328605D01*
X63978949Y-88324000D01*
X64901051Y-88324000D01*
X64947811Y-88328605D01*
X64947811Y-88328605D01*
G37*
G36*
X60501000Y-87171000D02*
G01*
X56339000Y-87171000D01*
X56339000Y-85549000D01*
X60501000Y-85549000D01*
X60501000Y-87171000D01*
X60501000Y-87171000D01*
G37*
G36*
X176457142Y-84308242D02*
G01*
X176605101Y-84369529D01*
X176738255Y-84458499D01*
X176851501Y-84571745D01*
X176940471Y-84704899D01*
X177001758Y-84852858D01*
X177033000Y-85009925D01*
X177033000Y-85170075D01*
X177001758Y-85327142D01*
X176940471Y-85475101D01*
X176851501Y-85608255D01*
X176738255Y-85721501D01*
X176605101Y-85810471D01*
X176457142Y-85871758D01*
X176300075Y-85903000D01*
X176139925Y-85903000D01*
X175982858Y-85871758D01*
X175834899Y-85810471D01*
X175701745Y-85721501D01*
X175588499Y-85608255D01*
X175499529Y-85475101D01*
X175438242Y-85327142D01*
X175407000Y-85170075D01*
X175407000Y-85009925D01*
X175438242Y-84852858D01*
X175499529Y-84704899D01*
X175588499Y-84571745D01*
X175701745Y-84458499D01*
X175834899Y-84369529D01*
X175982858Y-84308242D01*
X176139925Y-84277000D01*
X176300075Y-84277000D01*
X176457142Y-84308242D01*
X176457142Y-84308242D01*
G37*
G36*
X172957142Y-84308242D02*
G01*
X173105101Y-84369529D01*
X173238255Y-84458499D01*
X173351501Y-84571745D01*
X173440471Y-84704899D01*
X173501758Y-84852858D01*
X173533000Y-85009925D01*
X173533000Y-85170075D01*
X173501758Y-85327142D01*
X173440471Y-85475101D01*
X173351501Y-85608255D01*
X173238255Y-85721501D01*
X173105101Y-85810471D01*
X172957142Y-85871758D01*
X172800075Y-85903000D01*
X172639925Y-85903000D01*
X172482858Y-85871758D01*
X172334899Y-85810471D01*
X172201745Y-85721501D01*
X172088499Y-85608255D01*
X171999529Y-85475101D01*
X171938242Y-85327142D01*
X171907000Y-85170075D01*
X171907000Y-85009925D01*
X171938242Y-84852858D01*
X171999529Y-84704899D01*
X172088499Y-84571745D01*
X172201745Y-84458499D01*
X172334899Y-84369529D01*
X172482858Y-84308242D01*
X172639925Y-84277000D01*
X172800075Y-84277000D01*
X172957142Y-84308242D01*
X172957142Y-84308242D01*
G37*
M02*
