G04 #@! TF.GenerationSoftware,KiCad,Pcbnew,5.1.2-f72e74a~84~ubuntu18.04.1*
G04 #@! TF.CreationDate,2019-12-04T16:39:43+01:00*
G04 #@! TF.ProjectId,FR4_proto3,4652345f-7072-46f7-946f-332e6b696361,rev?*
G04 #@! TF.SameCoordinates,Original*
G04 #@! TF.FileFunction,Copper,L2,Bot*
G04 #@! TF.FilePolarity,Positive*
%FSLAX46Y46*%
G04 Gerber Fmt 4.6, Leading zero omitted, Abs format (unit mm)*
G04 Created by KiCad (PCBNEW 5.1.2-f72e74a~84~ubuntu18.04.1) date 2019-12-04 16:39:43*
%MOMM*%
%LPD*%
G04 APERTURE LIST*
%ADD10C,1.524000*%
%ADD11C,0.800000*%
%ADD12C,0.254000*%
G04 APERTURE END LIST*
D10*
X166370000Y-99060000D03*
X169870000Y-99060000D03*
D11*
X172720000Y-112530000D03*
X171450000Y-112530000D03*
X170180000Y-112530000D03*
X172720000Y-107180000D03*
X171450000Y-107180000D03*
X170180000Y-107180000D03*
X96520000Y-105410000D03*
X95250000Y-105410000D03*
X93980000Y-105410000D03*
X96520000Y-100330000D03*
X95250000Y-100330000D03*
X93980000Y-100330000D03*
D12*
G36*
X174600001Y-114910000D02*
G01*
X93370000Y-114910000D01*
X93370000Y-100025565D01*
X165584040Y-100025565D01*
X165651020Y-100265656D01*
X165900048Y-100382756D01*
X166167135Y-100449023D01*
X166442017Y-100461910D01*
X166714133Y-100420922D01*
X166973023Y-100327636D01*
X167088980Y-100265656D01*
X167155960Y-100025565D01*
X169084040Y-100025565D01*
X169151020Y-100265656D01*
X169400048Y-100382756D01*
X169667135Y-100449023D01*
X169942017Y-100461910D01*
X170214133Y-100420922D01*
X170473023Y-100327636D01*
X170588980Y-100265656D01*
X170655960Y-100025565D01*
X169870000Y-99239605D01*
X169084040Y-100025565D01*
X167155960Y-100025565D01*
X166370000Y-99239605D01*
X165584040Y-100025565D01*
X93370000Y-100025565D01*
X93370000Y-99132017D01*
X164968090Y-99132017D01*
X165009078Y-99404133D01*
X165102364Y-99663023D01*
X165164344Y-99778980D01*
X165404435Y-99845960D01*
X166190395Y-99060000D01*
X166549605Y-99060000D01*
X167335565Y-99845960D01*
X167575656Y-99778980D01*
X167692756Y-99529952D01*
X167759023Y-99262865D01*
X167765157Y-99132017D01*
X168468090Y-99132017D01*
X168509078Y-99404133D01*
X168602364Y-99663023D01*
X168664344Y-99778980D01*
X168904435Y-99845960D01*
X169690395Y-99060000D01*
X170049605Y-99060000D01*
X170835565Y-99845960D01*
X171075656Y-99778980D01*
X171192756Y-99529952D01*
X171259023Y-99262865D01*
X171271910Y-98987983D01*
X171230922Y-98715867D01*
X171137636Y-98456977D01*
X171075656Y-98341020D01*
X170835565Y-98274040D01*
X170049605Y-99060000D01*
X169690395Y-99060000D01*
X168904435Y-98274040D01*
X168664344Y-98341020D01*
X168547244Y-98590048D01*
X168480977Y-98857135D01*
X168468090Y-99132017D01*
X167765157Y-99132017D01*
X167771910Y-98987983D01*
X167730922Y-98715867D01*
X167637636Y-98456977D01*
X167575656Y-98341020D01*
X167335565Y-98274040D01*
X166549605Y-99060000D01*
X166190395Y-99060000D01*
X165404435Y-98274040D01*
X165164344Y-98341020D01*
X165047244Y-98590048D01*
X164980977Y-98857135D01*
X164968090Y-99132017D01*
X93370000Y-99132017D01*
X93370000Y-98094435D01*
X165584040Y-98094435D01*
X166370000Y-98880395D01*
X167155960Y-98094435D01*
X169084040Y-98094435D01*
X169870000Y-98880395D01*
X170655960Y-98094435D01*
X170588980Y-97854344D01*
X170339952Y-97737244D01*
X170072865Y-97670977D01*
X169797983Y-97658090D01*
X169525867Y-97699078D01*
X169266977Y-97792364D01*
X169151020Y-97854344D01*
X169084040Y-98094435D01*
X167155960Y-98094435D01*
X167088980Y-97854344D01*
X166839952Y-97737244D01*
X166572865Y-97670977D01*
X166297983Y-97658090D01*
X166025867Y-97699078D01*
X165766977Y-97792364D01*
X165651020Y-97854344D01*
X165584040Y-98094435D01*
X93370000Y-98094435D01*
X93370000Y-97180000D01*
X174600000Y-97180000D01*
X174600001Y-114910000D01*
X174600001Y-114910000D01*
G37*
X174600001Y-114910000D02*
X93370000Y-114910000D01*
X93370000Y-100025565D01*
X165584040Y-100025565D01*
X165651020Y-100265656D01*
X165900048Y-100382756D01*
X166167135Y-100449023D01*
X166442017Y-100461910D01*
X166714133Y-100420922D01*
X166973023Y-100327636D01*
X167088980Y-100265656D01*
X167155960Y-100025565D01*
X169084040Y-100025565D01*
X169151020Y-100265656D01*
X169400048Y-100382756D01*
X169667135Y-100449023D01*
X169942017Y-100461910D01*
X170214133Y-100420922D01*
X170473023Y-100327636D01*
X170588980Y-100265656D01*
X170655960Y-100025565D01*
X169870000Y-99239605D01*
X169084040Y-100025565D01*
X167155960Y-100025565D01*
X166370000Y-99239605D01*
X165584040Y-100025565D01*
X93370000Y-100025565D01*
X93370000Y-99132017D01*
X164968090Y-99132017D01*
X165009078Y-99404133D01*
X165102364Y-99663023D01*
X165164344Y-99778980D01*
X165404435Y-99845960D01*
X166190395Y-99060000D01*
X166549605Y-99060000D01*
X167335565Y-99845960D01*
X167575656Y-99778980D01*
X167692756Y-99529952D01*
X167759023Y-99262865D01*
X167765157Y-99132017D01*
X168468090Y-99132017D01*
X168509078Y-99404133D01*
X168602364Y-99663023D01*
X168664344Y-99778980D01*
X168904435Y-99845960D01*
X169690395Y-99060000D01*
X170049605Y-99060000D01*
X170835565Y-99845960D01*
X171075656Y-99778980D01*
X171192756Y-99529952D01*
X171259023Y-99262865D01*
X171271910Y-98987983D01*
X171230922Y-98715867D01*
X171137636Y-98456977D01*
X171075656Y-98341020D01*
X170835565Y-98274040D01*
X170049605Y-99060000D01*
X169690395Y-99060000D01*
X168904435Y-98274040D01*
X168664344Y-98341020D01*
X168547244Y-98590048D01*
X168480977Y-98857135D01*
X168468090Y-99132017D01*
X167765157Y-99132017D01*
X167771910Y-98987983D01*
X167730922Y-98715867D01*
X167637636Y-98456977D01*
X167575656Y-98341020D01*
X167335565Y-98274040D01*
X166549605Y-99060000D01*
X166190395Y-99060000D01*
X165404435Y-98274040D01*
X165164344Y-98341020D01*
X165047244Y-98590048D01*
X164980977Y-98857135D01*
X164968090Y-99132017D01*
X93370000Y-99132017D01*
X93370000Y-98094435D01*
X165584040Y-98094435D01*
X166370000Y-98880395D01*
X167155960Y-98094435D01*
X169084040Y-98094435D01*
X169870000Y-98880395D01*
X170655960Y-98094435D01*
X170588980Y-97854344D01*
X170339952Y-97737244D01*
X170072865Y-97670977D01*
X169797983Y-97658090D01*
X169525867Y-97699078D01*
X169266977Y-97792364D01*
X169151020Y-97854344D01*
X169084040Y-98094435D01*
X167155960Y-98094435D01*
X167088980Y-97854344D01*
X166839952Y-97737244D01*
X166572865Y-97670977D01*
X166297983Y-97658090D01*
X166025867Y-97699078D01*
X165766977Y-97792364D01*
X165651020Y-97854344D01*
X165584040Y-98094435D01*
X93370000Y-98094435D01*
X93370000Y-97180000D01*
X174600000Y-97180000D01*
X174600001Y-114910000D01*
M02*
