G04 #@! TF.GenerationSoftware,KiCad,Pcbnew,5.1.2-f72e74a~84~ubuntu18.04.1*
G04 #@! TF.CreationDate,2019-12-04T16:39:43+01:00*
G04 #@! TF.ProjectId,FR4_proto3,4652345f-7072-46f7-946f-332e6b696361,rev?*
G04 #@! TF.SameCoordinates,Original*
G04 #@! TF.FileFunction,Soldermask,Top*
G04 #@! TF.FilePolarity,Negative*
%FSLAX46Y46*%
G04 Gerber Fmt 4.6, Leading zero omitted, Abs format (unit mm)*
G04 Created by KiCad (PCBNEW 5.1.2-f72e74a~84~ubuntu18.04.1) date 2019-12-04 16:39:43*
%MOMM*%
%LPD*%
G04 APERTURE LIST*
%ADD10C,0.100000*%
G04 APERTURE END LIST*
D10*
G36*
X173531000Y-113191000D02*
G01*
X169369000Y-113191000D01*
X169369000Y-111569000D01*
X173531000Y-111569000D01*
X173531000Y-113191000D01*
X173531000Y-113191000D01*
G37*
G36*
X173801000Y-110651000D02*
G01*
X169099000Y-110651000D01*
X169099000Y-109029000D01*
X173801000Y-109029000D01*
X173801000Y-110651000D01*
X173801000Y-110651000D01*
G37*
G36*
X173531000Y-108111000D02*
G01*
X169369000Y-108111000D01*
X169369000Y-106489000D01*
X173531000Y-106489000D01*
X173531000Y-108111000D01*
X173531000Y-108111000D01*
G37*
G36*
X97331000Y-106221000D02*
G01*
X93169000Y-106221000D01*
X93169000Y-104599000D01*
X97331000Y-104599000D01*
X97331000Y-106221000D01*
X97331000Y-106221000D01*
G37*
G36*
X97601000Y-103681000D02*
G01*
X92899000Y-103681000D01*
X92899000Y-102059000D01*
X97601000Y-102059000D01*
X97601000Y-103681000D01*
X97601000Y-103681000D01*
G37*
G36*
X97331000Y-101141000D02*
G01*
X93169000Y-101141000D01*
X93169000Y-99519000D01*
X97331000Y-99519000D01*
X97331000Y-101141000D01*
X97331000Y-101141000D01*
G37*
G36*
X170107142Y-98278242D02*
G01*
X170255101Y-98339529D01*
X170388255Y-98428499D01*
X170501501Y-98541745D01*
X170590471Y-98674899D01*
X170651758Y-98822858D01*
X170683000Y-98979925D01*
X170683000Y-99140075D01*
X170651758Y-99297142D01*
X170590471Y-99445101D01*
X170501501Y-99578255D01*
X170388255Y-99691501D01*
X170255101Y-99780471D01*
X170107142Y-99841758D01*
X169950075Y-99873000D01*
X169789925Y-99873000D01*
X169632858Y-99841758D01*
X169484899Y-99780471D01*
X169351745Y-99691501D01*
X169238499Y-99578255D01*
X169149529Y-99445101D01*
X169088242Y-99297142D01*
X169057000Y-99140075D01*
X169057000Y-98979925D01*
X169088242Y-98822858D01*
X169149529Y-98674899D01*
X169238499Y-98541745D01*
X169351745Y-98428499D01*
X169484899Y-98339529D01*
X169632858Y-98278242D01*
X169789925Y-98247000D01*
X169950075Y-98247000D01*
X170107142Y-98278242D01*
X170107142Y-98278242D01*
G37*
G36*
X166607142Y-98278242D02*
G01*
X166755101Y-98339529D01*
X166888255Y-98428499D01*
X167001501Y-98541745D01*
X167090471Y-98674899D01*
X167151758Y-98822858D01*
X167183000Y-98979925D01*
X167183000Y-99140075D01*
X167151758Y-99297142D01*
X167090471Y-99445101D01*
X167001501Y-99578255D01*
X166888255Y-99691501D01*
X166755101Y-99780471D01*
X166607142Y-99841758D01*
X166450075Y-99873000D01*
X166289925Y-99873000D01*
X166132858Y-99841758D01*
X165984899Y-99780471D01*
X165851745Y-99691501D01*
X165738499Y-99578255D01*
X165649529Y-99445101D01*
X165588242Y-99297142D01*
X165557000Y-99140075D01*
X165557000Y-98979925D01*
X165588242Y-98822858D01*
X165649529Y-98674899D01*
X165738499Y-98541745D01*
X165851745Y-98428499D01*
X165984899Y-98339529D01*
X166132858Y-98278242D01*
X166289925Y-98247000D01*
X166450075Y-98247000D01*
X166607142Y-98278242D01*
X166607142Y-98278242D01*
G37*
M02*
