G04 #@! TF.GenerationSoftware,KiCad,Pcbnew,5.1.2-f72e74a~84~ubuntu18.04.1*
G04 #@! TF.CreationDate,2019-12-04T16:39:43+01:00*
G04 #@! TF.ProjectId,FR4_proto3,4652345f-7072-46f7-946f-332e6b696361,rev?*
G04 #@! TF.SameCoordinates,Original*
G04 #@! TF.FileFunction,Legend,Top*
G04 #@! TF.FilePolarity,Positive*
%FSLAX46Y46*%
G04 Gerber Fmt 4.6, Leading zero omitted, Abs format (unit mm)*
G04 Created by KiCad (PCBNEW 5.1.2-f72e74a~84~ubuntu18.04.1) date 2019-12-04 16:39:43*
%MOMM*%
%LPD*%
G04 APERTURE LIST*
%ADD10C,0.120000*%
%ADD11C,0.150000*%
G04 APERTURE END LIST*
D10*
X173990000Y-111110000D02*
X172720000Y-109840000D01*
X173990000Y-108570000D02*
X172720000Y-109840000D01*
X167640000Y-114920000D02*
X182880000Y-114920000D01*
X182880000Y-104760000D02*
X167640000Y-104760000D01*
X168910000Y-112380000D02*
X168910000Y-113650000D01*
X173990000Y-112380000D02*
X168910000Y-112380000D01*
X173990000Y-107300000D02*
X173990000Y-112380000D01*
X168910000Y-107300000D02*
X173990000Y-107300000D01*
X168910000Y-106030000D02*
X168910000Y-107300000D01*
X181610000Y-107300000D02*
X181610000Y-112380000D01*
X175260000Y-107300000D02*
X181610000Y-107300000D01*
X175260000Y-106030000D02*
X175260000Y-107300000D01*
X175260000Y-112380000D02*
X181610000Y-112380000D01*
X175260000Y-113650000D02*
X175260000Y-112380000D01*
X182880000Y-114920000D02*
X182880000Y-104760000D01*
X167640000Y-104760000D02*
X167640000Y-114920000D01*
X175260000Y-113650000D02*
X168910000Y-113650000D01*
X168910000Y-106030000D02*
X175260000Y-106030000D01*
X92710000Y-101600000D02*
X93980000Y-102870000D01*
X92710000Y-104140000D02*
X93980000Y-102870000D01*
X99060000Y-97790000D02*
X83820000Y-97790000D01*
X83820000Y-107950000D02*
X99060000Y-107950000D01*
X97790000Y-100330000D02*
X97790000Y-99060000D01*
X92710000Y-100330000D02*
X97790000Y-100330000D01*
X92710000Y-105410000D02*
X92710000Y-100330000D01*
X97790000Y-105410000D02*
X92710000Y-105410000D01*
X97790000Y-106680000D02*
X97790000Y-105410000D01*
X85090000Y-105410000D02*
X85090000Y-100330000D01*
X91440000Y-105410000D02*
X85090000Y-105410000D01*
X91440000Y-106680000D02*
X91440000Y-105410000D01*
X91440000Y-100330000D02*
X85090000Y-100330000D01*
X91440000Y-99060000D02*
X91440000Y-100330000D01*
X83820000Y-97790000D02*
X83820000Y-107950000D01*
X99060000Y-107950000D02*
X99060000Y-97790000D01*
X91440000Y-99060000D02*
X97790000Y-99060000D01*
X97790000Y-106680000D02*
X91440000Y-106680000D01*
X167890000Y-97790000D02*
G75*
G03X167890000Y-97790000I-250000J0D01*
G01*
X164070000Y-97360000D02*
X172170000Y-97360000D01*
X172170000Y-100760000D02*
X164070000Y-100760000D01*
X164070000Y-97360000D02*
X164070000Y-100760000D01*
X172170000Y-97360000D02*
X172170000Y-100760000D01*
D11*
X169688095Y-103274761D02*
X169830952Y-103322380D01*
X170069047Y-103322380D01*
X170164285Y-103274761D01*
X170211904Y-103227142D01*
X170259523Y-103131904D01*
X170259523Y-103036666D01*
X170211904Y-102941428D01*
X170164285Y-102893809D01*
X170069047Y-102846190D01*
X169878571Y-102798571D01*
X169783333Y-102750952D01*
X169735714Y-102703333D01*
X169688095Y-102608095D01*
X169688095Y-102512857D01*
X169735714Y-102417619D01*
X169783333Y-102370000D01*
X169878571Y-102322380D01*
X170116666Y-102322380D01*
X170259523Y-102370000D01*
X170688095Y-103322380D02*
X170688095Y-102322380D01*
X171021428Y-103036666D01*
X171354761Y-102322380D01*
X171354761Y-103322380D01*
X171783333Y-103036666D02*
X172259523Y-103036666D01*
X171688095Y-103322380D02*
X172021428Y-102322380D01*
X172354761Y-103322380D01*
X172640476Y-102417619D02*
X172688095Y-102370000D01*
X172783333Y-102322380D01*
X173021428Y-102322380D01*
X173116666Y-102370000D01*
X173164285Y-102417619D01*
X173211904Y-102512857D01*
X173211904Y-102608095D01*
X173164285Y-102750952D01*
X172592857Y-103322380D01*
X173211904Y-103322380D01*
X96028095Y-109624761D02*
X96170952Y-109672380D01*
X96409047Y-109672380D01*
X96504285Y-109624761D01*
X96551904Y-109577142D01*
X96599523Y-109481904D01*
X96599523Y-109386666D01*
X96551904Y-109291428D01*
X96504285Y-109243809D01*
X96409047Y-109196190D01*
X96218571Y-109148571D01*
X96123333Y-109100952D01*
X96075714Y-109053333D01*
X96028095Y-108958095D01*
X96028095Y-108862857D01*
X96075714Y-108767619D01*
X96123333Y-108720000D01*
X96218571Y-108672380D01*
X96456666Y-108672380D01*
X96599523Y-108720000D01*
X97028095Y-109672380D02*
X97028095Y-108672380D01*
X97361428Y-109386666D01*
X97694761Y-108672380D01*
X97694761Y-109672380D01*
X98123333Y-109386666D02*
X98599523Y-109386666D01*
X98028095Y-109672380D02*
X98361428Y-108672380D01*
X98694761Y-109672380D01*
X99551904Y-109672380D02*
X98980476Y-109672380D01*
X99266190Y-109672380D02*
X99266190Y-108672380D01*
X99170952Y-108815238D01*
X99075714Y-108910476D01*
X98980476Y-108958095D01*
X162226666Y-97242380D02*
X162226666Y-97956666D01*
X162179047Y-98099523D01*
X162083809Y-98194761D01*
X161940952Y-98242380D01*
X161845714Y-98242380D01*
X163226666Y-98242380D02*
X162655238Y-98242380D01*
X162940952Y-98242380D02*
X162940952Y-97242380D01*
X162845714Y-97385238D01*
X162750476Y-97480476D01*
X162655238Y-97528095D01*
M02*
