G04 #@! TF.GenerationSoftware,KiCad,Pcbnew,5.1.2-f72e74a~84~ubuntu18.04.1*
G04 #@! TF.CreationDate,2019-11-26T17:04:54+01:00*
G04 #@! TF.ProjectId,resonator_LC,7265736f-6e61-4746-9f72-5f4c432e6b69,rev?*
G04 #@! TF.SameCoordinates,Original*
G04 #@! TF.FileFunction,Legend,Top*
G04 #@! TF.FilePolarity,Positive*
%FSLAX46Y46*%
G04 Gerber Fmt 4.6, Leading zero omitted, Abs format (unit mm)*
G04 Created by KiCad (PCBNEW 5.1.2-f72e74a~84~ubuntu18.04.1) date 2019-11-26 17:04:54*
%MOMM*%
%LPD*%
G04 APERTURE LIST*
%ADD10C,0.120000*%
%ADD11C,0.150000*%
G04 APERTURE END LIST*
D10*
X119380000Y-95250000D02*
X118110000Y-93980000D01*
X119380000Y-92710000D02*
X118110000Y-93980000D01*
X113030000Y-99060000D02*
X128270000Y-99060000D01*
X128270000Y-88900000D02*
X113030000Y-88900000D01*
X114300000Y-96520000D02*
X114300000Y-97790000D01*
X119380000Y-96520000D02*
X114300000Y-96520000D01*
X119380000Y-91440000D02*
X119380000Y-96520000D01*
X114300000Y-91440000D02*
X119380000Y-91440000D01*
X114300000Y-90170000D02*
X114300000Y-91440000D01*
X127000000Y-91440000D02*
X127000000Y-96520000D01*
X120650000Y-91440000D02*
X127000000Y-91440000D01*
X120650000Y-90170000D02*
X120650000Y-91440000D01*
X120650000Y-96520000D02*
X127000000Y-96520000D01*
X120650000Y-97790000D02*
X120650000Y-96520000D01*
X128270000Y-99060000D02*
X128270000Y-88900000D01*
X113030000Y-88900000D02*
X113030000Y-99060000D01*
X120650000Y-97790000D02*
X114300000Y-97790000D01*
X114300000Y-90170000D02*
X120650000Y-90170000D01*
X83820000Y-92710000D02*
X85090000Y-93980000D01*
X83820000Y-95250000D02*
X85090000Y-93980000D01*
X90170000Y-88900000D02*
X74930000Y-88900000D01*
X74930000Y-99060000D02*
X90170000Y-99060000D01*
X88900000Y-91440000D02*
X88900000Y-90170000D01*
X83820000Y-91440000D02*
X88900000Y-91440000D01*
X83820000Y-96520000D02*
X83820000Y-91440000D01*
X88900000Y-96520000D02*
X83820000Y-96520000D01*
X88900000Y-97790000D02*
X88900000Y-96520000D01*
X76200000Y-96520000D02*
X76200000Y-91440000D01*
X82550000Y-96520000D02*
X76200000Y-96520000D01*
X82550000Y-97790000D02*
X82550000Y-96520000D01*
X82550000Y-91440000D02*
X76200000Y-91440000D01*
X82550000Y-90170000D02*
X82550000Y-91440000D01*
X74930000Y-88900000D02*
X74930000Y-99060000D01*
X90170000Y-99060000D02*
X90170000Y-88900000D01*
X82550000Y-90170000D02*
X88900000Y-90170000D01*
X88900000Y-97790000D02*
X82550000Y-97790000D01*
X101850000Y-100330000D02*
G75*
G03X101850000Y-100330000I-250000J0D01*
G01*
X105170000Y-100760000D02*
X97070000Y-100760000D01*
X97070000Y-97360000D02*
X105170000Y-97360000D01*
X105170000Y-100760000D02*
X105170000Y-97360000D01*
X97070000Y-100760000D02*
X97070000Y-97360000D01*
X111957500Y-93045000D02*
X107872500Y-93045000D01*
X111957500Y-94915000D02*
X111957500Y-93045000D01*
X107872500Y-94915000D02*
X111957500Y-94915000D01*
X95797500Y-93045000D02*
X91712500Y-93045000D01*
X95797500Y-94915000D02*
X95797500Y-93045000D01*
X91712500Y-94915000D02*
X95797500Y-94915000D01*
D11*
X109998095Y-86764761D02*
X110140952Y-86812380D01*
X110379047Y-86812380D01*
X110474285Y-86764761D01*
X110521904Y-86717142D01*
X110569523Y-86621904D01*
X110569523Y-86526666D01*
X110521904Y-86431428D01*
X110474285Y-86383809D01*
X110379047Y-86336190D01*
X110188571Y-86288571D01*
X110093333Y-86240952D01*
X110045714Y-86193333D01*
X109998095Y-86098095D01*
X109998095Y-86002857D01*
X110045714Y-85907619D01*
X110093333Y-85860000D01*
X110188571Y-85812380D01*
X110426666Y-85812380D01*
X110569523Y-85860000D01*
X110998095Y-86812380D02*
X110998095Y-85812380D01*
X111331428Y-86526666D01*
X111664761Y-85812380D01*
X111664761Y-86812380D01*
X112093333Y-86526666D02*
X112569523Y-86526666D01*
X111998095Y-86812380D02*
X112331428Y-85812380D01*
X112664761Y-86812380D01*
X112950476Y-85907619D02*
X112998095Y-85860000D01*
X113093333Y-85812380D01*
X113331428Y-85812380D01*
X113426666Y-85860000D01*
X113474285Y-85907619D01*
X113521904Y-86002857D01*
X113521904Y-86098095D01*
X113474285Y-86240952D01*
X112902857Y-86812380D01*
X113521904Y-86812380D01*
X88408095Y-86764761D02*
X88550952Y-86812380D01*
X88789047Y-86812380D01*
X88884285Y-86764761D01*
X88931904Y-86717142D01*
X88979523Y-86621904D01*
X88979523Y-86526666D01*
X88931904Y-86431428D01*
X88884285Y-86383809D01*
X88789047Y-86336190D01*
X88598571Y-86288571D01*
X88503333Y-86240952D01*
X88455714Y-86193333D01*
X88408095Y-86098095D01*
X88408095Y-86002857D01*
X88455714Y-85907619D01*
X88503333Y-85860000D01*
X88598571Y-85812380D01*
X88836666Y-85812380D01*
X88979523Y-85860000D01*
X89408095Y-86812380D02*
X89408095Y-85812380D01*
X89741428Y-86526666D01*
X90074761Y-85812380D01*
X90074761Y-86812380D01*
X90503333Y-86526666D02*
X90979523Y-86526666D01*
X90408095Y-86812380D02*
X90741428Y-85812380D01*
X91074761Y-86812380D01*
X91931904Y-86812380D02*
X91360476Y-86812380D01*
X91646190Y-86812380D02*
X91646190Y-85812380D01*
X91550952Y-85955238D01*
X91455714Y-86050476D01*
X91360476Y-86098095D01*
X106346666Y-97242380D02*
X106346666Y-97956666D01*
X106299047Y-98099523D01*
X106203809Y-98194761D01*
X106060952Y-98242380D01*
X105965714Y-98242380D01*
X107346666Y-98242380D02*
X106775238Y-98242380D01*
X107060952Y-98242380D02*
X107060952Y-97242380D01*
X106965714Y-97385238D01*
X106870476Y-97480476D01*
X106775238Y-97528095D01*
X109305833Y-96087142D02*
X109258214Y-96134761D01*
X109115357Y-96182380D01*
X109020119Y-96182380D01*
X108877261Y-96134761D01*
X108782023Y-96039523D01*
X108734404Y-95944285D01*
X108686785Y-95753809D01*
X108686785Y-95610952D01*
X108734404Y-95420476D01*
X108782023Y-95325238D01*
X108877261Y-95230000D01*
X109020119Y-95182380D01*
X109115357Y-95182380D01*
X109258214Y-95230000D01*
X109305833Y-95277619D01*
X109686785Y-95277619D02*
X109734404Y-95230000D01*
X109829642Y-95182380D01*
X110067738Y-95182380D01*
X110162976Y-95230000D01*
X110210595Y-95277619D01*
X110258214Y-95372857D01*
X110258214Y-95468095D01*
X110210595Y-95610952D01*
X109639166Y-96182380D01*
X110258214Y-96182380D01*
X93145833Y-96087142D02*
X93098214Y-96134761D01*
X92955357Y-96182380D01*
X92860119Y-96182380D01*
X92717261Y-96134761D01*
X92622023Y-96039523D01*
X92574404Y-95944285D01*
X92526785Y-95753809D01*
X92526785Y-95610952D01*
X92574404Y-95420476D01*
X92622023Y-95325238D01*
X92717261Y-95230000D01*
X92860119Y-95182380D01*
X92955357Y-95182380D01*
X93098214Y-95230000D01*
X93145833Y-95277619D01*
X94098214Y-96182380D02*
X93526785Y-96182380D01*
X93812500Y-96182380D02*
X93812500Y-95182380D01*
X93717261Y-95325238D01*
X93622023Y-95420476D01*
X93526785Y-95468095D01*
M02*
