G04 #@! TF.GenerationSoftware,KiCad,Pcbnew,5.1.2-f72e74a~84~ubuntu18.04.1*
G04 #@! TF.CreationDate,2019-11-26T17:04:54+01:00*
G04 #@! TF.ProjectId,resonator_LC,7265736f-6e61-4746-9f72-5f4c432e6b69,rev?*
G04 #@! TF.SameCoordinates,Original*
G04 #@! TF.FileFunction,Soldermask,Bot*
G04 #@! TF.FilePolarity,Negative*
%FSLAX46Y46*%
G04 Gerber Fmt 4.6, Leading zero omitted, Abs format (unit mm)*
G04 Created by KiCad (PCBNEW 5.1.2-f72e74a~84~ubuntu18.04.1) date 2019-11-26 17:04:54*
%MOMM*%
%LPD*%
G04 APERTURE LIST*
%ADD10C,0.100000*%
G04 APERTURE END LIST*
D10*
G36*
X103107142Y-98278242D02*
G01*
X103255101Y-98339529D01*
X103388255Y-98428499D01*
X103501501Y-98541745D01*
X103590471Y-98674899D01*
X103651758Y-98822858D01*
X103683000Y-98979925D01*
X103683000Y-99140075D01*
X103651758Y-99297142D01*
X103590471Y-99445101D01*
X103501501Y-99578255D01*
X103388255Y-99691501D01*
X103255101Y-99780471D01*
X103107142Y-99841758D01*
X102950075Y-99873000D01*
X102789925Y-99873000D01*
X102632858Y-99841758D01*
X102484899Y-99780471D01*
X102351745Y-99691501D01*
X102238499Y-99578255D01*
X102149529Y-99445101D01*
X102088242Y-99297142D01*
X102057000Y-99140075D01*
X102057000Y-98979925D01*
X102088242Y-98822858D01*
X102149529Y-98674899D01*
X102238499Y-98541745D01*
X102351745Y-98428499D01*
X102484899Y-98339529D01*
X102632858Y-98278242D01*
X102789925Y-98247000D01*
X102950075Y-98247000D01*
X103107142Y-98278242D01*
X103107142Y-98278242D01*
G37*
G36*
X99607142Y-98278242D02*
G01*
X99755101Y-98339529D01*
X99888255Y-98428499D01*
X100001501Y-98541745D01*
X100090471Y-98674899D01*
X100151758Y-98822858D01*
X100183000Y-98979925D01*
X100183000Y-99140075D01*
X100151758Y-99297142D01*
X100090471Y-99445101D01*
X100001501Y-99578255D01*
X99888255Y-99691501D01*
X99755101Y-99780471D01*
X99607142Y-99841758D01*
X99450075Y-99873000D01*
X99289925Y-99873000D01*
X99132858Y-99841758D01*
X98984899Y-99780471D01*
X98851745Y-99691501D01*
X98738499Y-99578255D01*
X98649529Y-99445101D01*
X98588242Y-99297142D01*
X98557000Y-99140075D01*
X98557000Y-98979925D01*
X98588242Y-98822858D01*
X98649529Y-98674899D01*
X98738499Y-98541745D01*
X98851745Y-98428499D01*
X98984899Y-98339529D01*
X99132858Y-98278242D01*
X99289925Y-98247000D01*
X99450075Y-98247000D01*
X99607142Y-98278242D01*
X99607142Y-98278242D01*
G37*
M02*
