G04 #@! TF.GenerationSoftware,KiCad,Pcbnew,5.1.2-f72e74a~84~ubuntu18.04.1*
G04 #@! TF.CreationDate,2019-12-04T15:30:54+01:00*
G04 #@! TF.ProjectId,RO4350B_proto,524f3433-3530-4425-9f70-726f746f2e6b,rev?*
G04 #@! TF.SameCoordinates,Original*
G04 #@! TF.FileFunction,Legend,Top*
G04 #@! TF.FilePolarity,Positive*
%FSLAX46Y46*%
G04 Gerber Fmt 4.6, Leading zero omitted, Abs format (unit mm)*
G04 Created by KiCad (PCBNEW 5.1.2-f72e74a~84~ubuntu18.04.1) date 2019-12-04 15:30:54*
%MOMM*%
%LPD*%
G04 APERTURE LIST*
%ADD10C,0.120000*%
%ADD11C,0.150000*%
G04 APERTURE END LIST*
D10*
X160270000Y-99060000D02*
G75*
G03X160270000Y-99060000I-250000J0D01*
G01*
X163590000Y-99490000D02*
X155490000Y-99490000D01*
X155490000Y-96090000D02*
X163590000Y-96090000D01*
X163590000Y-99490000D02*
X163590000Y-96090000D01*
X155490000Y-99490000D02*
X155490000Y-96090000D01*
X163830000Y-110790000D02*
X162560000Y-109520000D01*
X163830000Y-108250000D02*
X162560000Y-109520000D01*
X157480000Y-114600000D02*
X172720000Y-114600000D01*
X172720000Y-104440000D02*
X157480000Y-104440000D01*
X158750000Y-112060000D02*
X158750000Y-113330000D01*
X163830000Y-112060000D02*
X158750000Y-112060000D01*
X163830000Y-106980000D02*
X163830000Y-112060000D01*
X158750000Y-106980000D02*
X163830000Y-106980000D01*
X158750000Y-105710000D02*
X158750000Y-106980000D01*
X171450000Y-106980000D02*
X171450000Y-112060000D01*
X165100000Y-106980000D02*
X171450000Y-106980000D01*
X165100000Y-105710000D02*
X165100000Y-106980000D01*
X165100000Y-112060000D02*
X171450000Y-112060000D01*
X165100000Y-113330000D02*
X165100000Y-112060000D01*
X172720000Y-114600000D02*
X172720000Y-104440000D01*
X157480000Y-104440000D02*
X157480000Y-114600000D01*
X165100000Y-113330000D02*
X158750000Y-113330000D01*
X158750000Y-105710000D02*
X165100000Y-105710000D01*
X68580000Y-99060000D02*
X69850000Y-100330000D01*
X68580000Y-101600000D02*
X69850000Y-100330000D01*
X74930000Y-95250000D02*
X59690000Y-95250000D01*
X59690000Y-105410000D02*
X74930000Y-105410000D01*
X73660000Y-97790000D02*
X73660000Y-96520000D01*
X68580000Y-97790000D02*
X73660000Y-97790000D01*
X68580000Y-102870000D02*
X68580000Y-97790000D01*
X73660000Y-102870000D02*
X68580000Y-102870000D01*
X73660000Y-104140000D02*
X73660000Y-102870000D01*
X60960000Y-102870000D02*
X60960000Y-97790000D01*
X67310000Y-102870000D02*
X60960000Y-102870000D01*
X67310000Y-104140000D02*
X67310000Y-102870000D01*
X67310000Y-97790000D02*
X60960000Y-97790000D01*
X67310000Y-96520000D02*
X67310000Y-97790000D01*
X59690000Y-95250000D02*
X59690000Y-105410000D01*
X74930000Y-105410000D02*
X74930000Y-95250000D01*
X67310000Y-96520000D02*
X73660000Y-96520000D01*
X73660000Y-104140000D02*
X67310000Y-104140000D01*
D11*
X153336666Y-94702380D02*
X153336666Y-95416666D01*
X153289047Y-95559523D01*
X153193809Y-95654761D01*
X153050952Y-95702380D01*
X152955714Y-95702380D01*
X154336666Y-95702380D02*
X153765238Y-95702380D01*
X154050952Y-95702380D02*
X154050952Y-94702380D01*
X153955714Y-94845238D01*
X153860476Y-94940476D01*
X153765238Y-94988095D01*
X153178095Y-102004761D02*
X153320952Y-102052380D01*
X153559047Y-102052380D01*
X153654285Y-102004761D01*
X153701904Y-101957142D01*
X153749523Y-101861904D01*
X153749523Y-101766666D01*
X153701904Y-101671428D01*
X153654285Y-101623809D01*
X153559047Y-101576190D01*
X153368571Y-101528571D01*
X153273333Y-101480952D01*
X153225714Y-101433333D01*
X153178095Y-101338095D01*
X153178095Y-101242857D01*
X153225714Y-101147619D01*
X153273333Y-101100000D01*
X153368571Y-101052380D01*
X153606666Y-101052380D01*
X153749523Y-101100000D01*
X154178095Y-102052380D02*
X154178095Y-101052380D01*
X154511428Y-101766666D01*
X154844761Y-101052380D01*
X154844761Y-102052380D01*
X155273333Y-101766666D02*
X155749523Y-101766666D01*
X155178095Y-102052380D02*
X155511428Y-101052380D01*
X155844761Y-102052380D01*
X156130476Y-101147619D02*
X156178095Y-101100000D01*
X156273333Y-101052380D01*
X156511428Y-101052380D01*
X156606666Y-101100000D01*
X156654285Y-101147619D01*
X156701904Y-101242857D01*
X156701904Y-101338095D01*
X156654285Y-101480952D01*
X156082857Y-102052380D01*
X156701904Y-102052380D01*
X73168095Y-107084761D02*
X73310952Y-107132380D01*
X73549047Y-107132380D01*
X73644285Y-107084761D01*
X73691904Y-107037142D01*
X73739523Y-106941904D01*
X73739523Y-106846666D01*
X73691904Y-106751428D01*
X73644285Y-106703809D01*
X73549047Y-106656190D01*
X73358571Y-106608571D01*
X73263333Y-106560952D01*
X73215714Y-106513333D01*
X73168095Y-106418095D01*
X73168095Y-106322857D01*
X73215714Y-106227619D01*
X73263333Y-106180000D01*
X73358571Y-106132380D01*
X73596666Y-106132380D01*
X73739523Y-106180000D01*
X74168095Y-107132380D02*
X74168095Y-106132380D01*
X74501428Y-106846666D01*
X74834761Y-106132380D01*
X74834761Y-107132380D01*
X75263333Y-106846666D02*
X75739523Y-106846666D01*
X75168095Y-107132380D02*
X75501428Y-106132380D01*
X75834761Y-107132380D01*
X76691904Y-107132380D02*
X76120476Y-107132380D01*
X76406190Y-107132380D02*
X76406190Y-106132380D01*
X76310952Y-106275238D01*
X76215714Y-106370476D01*
X76120476Y-106418095D01*
M02*
