G04 #@! TF.GenerationSoftware,KiCad,Pcbnew,5.1.2-f72e74a~84~ubuntu18.04.1*
G04 #@! TF.CreationDate,2019-12-04T15:30:54+01:00*
G04 #@! TF.ProjectId,RO4350B_proto,524f3433-3530-4425-9f70-726f746f2e6b,rev?*
G04 #@! TF.SameCoordinates,Original*
G04 #@! TF.FileFunction,Copper,L1,Top*
G04 #@! TF.FilePolarity,Positive*
%FSLAX46Y46*%
G04 Gerber Fmt 4.6, Leading zero omitted, Abs format (unit mm)*
G04 Created by KiCad (PCBNEW 5.1.2-f72e74a~84~ubuntu18.04.1) date 2019-12-04 15:30:54*
%MOMM*%
%LPD*%
G04 APERTURE LIST*
%ADD10C,1.524000*%
%ADD11R,4.060000X1.520000*%
%ADD12R,4.600000X1.520000*%
%ADD13C,0.800000*%
%ADD14C,1.897860*%
%ADD15C,2.552590*%
%ADD16C,3.500000*%
%ADD17C,2.900000*%
G04 APERTURE END LIST*
D10*
X161290000Y-97790000D03*
X157790000Y-97790000D03*
D11*
X161290000Y-112060000D03*
X161290000Y-106980000D03*
D12*
X161290000Y-109520000D03*
D11*
X71120000Y-97790000D03*
X71120000Y-102870000D03*
D12*
X71120000Y-100330000D03*
D13*
X162560000Y-111760000D03*
X161290000Y-111760000D03*
X160020000Y-111760000D03*
X162560000Y-106680000D03*
X161290000Y-106680000D03*
X160020000Y-106680000D03*
X72390000Y-102870000D03*
X71120000Y-102870000D03*
X69850000Y-102870000D03*
X72390000Y-97790000D03*
X71120000Y-97790000D03*
X69850000Y-97790000D03*
D14*
X80080000Y-103171114D02*
X103615900Y-103171114D01*
D15*
X103790000Y-103496114D02*
X127032900Y-103496114D01*
X103790000Y-106331424D02*
X127032900Y-106331424D01*
D14*
X127220000Y-106656424D02*
X150755900Y-106656424D01*
X80080000Y-101130000D02*
X103615900Y-101130000D01*
D16*
X74390000Y-100330000D02*
X79890000Y-100330000D01*
D17*
X72390000Y-100330000D02*
X74390000Y-100330000D01*
D14*
X127220000Y-108697538D02*
X150755900Y-108697538D01*
D16*
X150980000Y-109497538D02*
X156480000Y-109497538D01*
D17*
X157480000Y-109497538D02*
X161000000Y-109497538D01*
M02*
