G04 #@! TF.GenerationSoftware,KiCad,Pcbnew,5.1.2-f72e74a~84~ubuntu18.04.1*
G04 #@! TF.CreationDate,2019-11-26T15:09:58+01:00*
G04 #@! TF.ProjectId,FR4_proto2,4652345f-7072-46f7-946f-322e6b696361,rev?*
G04 #@! TF.SameCoordinates,Original*
G04 #@! TF.FileFunction,Soldermask,Bot*
G04 #@! TF.FilePolarity,Negative*
%FSLAX46Y46*%
G04 Gerber Fmt 4.6, Leading zero omitted, Abs format (unit mm)*
G04 Created by KiCad (PCBNEW 5.1.2-f72e74a~84~ubuntu18.04.1) date 2019-11-26 15:09:58*
%MOMM*%
%LPD*%
G04 APERTURE LIST*
%ADD10C,0.100000*%
G04 APERTURE END LIST*
D10*
G36*
X182807142Y-77958242D02*
G01*
X182955101Y-78019529D01*
X183088255Y-78108499D01*
X183201501Y-78221745D01*
X183290471Y-78354899D01*
X183351758Y-78502858D01*
X183383000Y-78659925D01*
X183383000Y-78820075D01*
X183351758Y-78977142D01*
X183290471Y-79125101D01*
X183201501Y-79258255D01*
X183088255Y-79371501D01*
X182955101Y-79460471D01*
X182807142Y-79521758D01*
X182650075Y-79553000D01*
X182489925Y-79553000D01*
X182332858Y-79521758D01*
X182184899Y-79460471D01*
X182051745Y-79371501D01*
X181938499Y-79258255D01*
X181849529Y-79125101D01*
X181788242Y-78977142D01*
X181757000Y-78820075D01*
X181757000Y-78659925D01*
X181788242Y-78502858D01*
X181849529Y-78354899D01*
X181938499Y-78221745D01*
X182051745Y-78108499D01*
X182184899Y-78019529D01*
X182332858Y-77958242D01*
X182489925Y-77927000D01*
X182650075Y-77927000D01*
X182807142Y-77958242D01*
X182807142Y-77958242D01*
G37*
G36*
X179307142Y-77958242D02*
G01*
X179455101Y-78019529D01*
X179588255Y-78108499D01*
X179701501Y-78221745D01*
X179790471Y-78354899D01*
X179851758Y-78502858D01*
X179883000Y-78659925D01*
X179883000Y-78820075D01*
X179851758Y-78977142D01*
X179790471Y-79125101D01*
X179701501Y-79258255D01*
X179588255Y-79371501D01*
X179455101Y-79460471D01*
X179307142Y-79521758D01*
X179150075Y-79553000D01*
X178989925Y-79553000D01*
X178832858Y-79521758D01*
X178684899Y-79460471D01*
X178551745Y-79371501D01*
X178438499Y-79258255D01*
X178349529Y-79125101D01*
X178288242Y-78977142D01*
X178257000Y-78820075D01*
X178257000Y-78659925D01*
X178288242Y-78502858D01*
X178349529Y-78354899D01*
X178438499Y-78221745D01*
X178551745Y-78108499D01*
X178684899Y-78019529D01*
X178832858Y-77958242D01*
X178989925Y-77927000D01*
X179150075Y-77927000D01*
X179307142Y-77958242D01*
X179307142Y-77958242D01*
G37*
M02*
