G04 #@! TF.GenerationSoftware,KiCad,Pcbnew,5.1.2-f72e74a~84~ubuntu18.04.1*
G04 #@! TF.CreationDate,2019-11-26T15:09:58+01:00*
G04 #@! TF.ProjectId,FR4_proto2,4652345f-7072-46f7-946f-322e6b696361,rev?*
G04 #@! TF.SameCoordinates,Original*
G04 #@! TF.FileFunction,Legend,Top*
G04 #@! TF.FilePolarity,Positive*
%FSLAX46Y46*%
G04 Gerber Fmt 4.6, Leading zero omitted, Abs format (unit mm)*
G04 Created by KiCad (PCBNEW 5.1.2-f72e74a~84~ubuntu18.04.1) date 2019-11-26 15:09:58*
%MOMM*%
%LPD*%
G04 APERTURE LIST*
%ADD10C,0.120000*%
%ADD11C,0.150000*%
G04 APERTURE END LIST*
D10*
X178285000Y-94165000D02*
X175800000Y-94165000D01*
X178285000Y-95735000D02*
X178285000Y-94165000D01*
X175800000Y-95735000D02*
X178285000Y-95735000D01*
X79625000Y-81765000D02*
X77140000Y-81765000D01*
X79625000Y-83335000D02*
X79625000Y-81765000D01*
X77140000Y-83335000D02*
X79625000Y-83335000D01*
X186690000Y-96220000D02*
X185420000Y-94950000D01*
X186690000Y-93680000D02*
X185420000Y-94950000D01*
X180340000Y-100030000D02*
X195580000Y-100030000D01*
X195580000Y-89870000D02*
X180340000Y-89870000D01*
X181610000Y-97490000D02*
X181610000Y-98760000D01*
X186690000Y-97490000D02*
X181610000Y-97490000D01*
X186690000Y-92410000D02*
X186690000Y-97490000D01*
X181610000Y-92410000D02*
X186690000Y-92410000D01*
X181610000Y-91140000D02*
X181610000Y-92410000D01*
X194310000Y-92410000D02*
X194310000Y-97490000D01*
X187960000Y-92410000D02*
X194310000Y-92410000D01*
X187960000Y-91140000D02*
X187960000Y-92410000D01*
X187960000Y-97490000D02*
X194310000Y-97490000D01*
X187960000Y-98760000D02*
X187960000Y-97490000D01*
X195580000Y-100030000D02*
X195580000Y-89870000D01*
X180340000Y-89870000D02*
X180340000Y-100030000D01*
X187960000Y-98760000D02*
X181610000Y-98760000D01*
X181610000Y-91140000D02*
X187960000Y-91140000D01*
X68580000Y-81280000D02*
X69850000Y-82550000D01*
X68580000Y-83820000D02*
X69850000Y-82550000D01*
X74930000Y-77470000D02*
X59690000Y-77470000D01*
X59690000Y-87630000D02*
X74930000Y-87630000D01*
X73660000Y-80010000D02*
X73660000Y-78740000D01*
X68580000Y-80010000D02*
X73660000Y-80010000D01*
X68580000Y-85090000D02*
X68580000Y-80010000D01*
X73660000Y-85090000D02*
X68580000Y-85090000D01*
X73660000Y-86360000D02*
X73660000Y-85090000D01*
X60960000Y-85090000D02*
X60960000Y-80010000D01*
X67310000Y-85090000D02*
X60960000Y-85090000D01*
X67310000Y-86360000D02*
X67310000Y-85090000D01*
X67310000Y-80010000D02*
X60960000Y-80010000D01*
X67310000Y-78740000D02*
X67310000Y-80010000D01*
X59690000Y-77470000D02*
X59690000Y-87630000D01*
X74930000Y-87630000D02*
X74930000Y-77470000D01*
X67310000Y-78740000D02*
X73660000Y-78740000D01*
X73660000Y-86360000D02*
X67310000Y-86360000D01*
X180590000Y-77470000D02*
G75*
G03X180590000Y-77470000I-250000J0D01*
G01*
X176770000Y-77040000D02*
X184870000Y-77040000D01*
X184870000Y-80440000D02*
X176770000Y-80440000D01*
X176770000Y-77040000D02*
X176770000Y-80440000D01*
X184870000Y-77040000D02*
X184870000Y-80440000D01*
D11*
X176433333Y-96787142D02*
X176385714Y-96834761D01*
X176242857Y-96882380D01*
X176147619Y-96882380D01*
X176004761Y-96834761D01*
X175909523Y-96739523D01*
X175861904Y-96644285D01*
X175814285Y-96453809D01*
X175814285Y-96310952D01*
X175861904Y-96120476D01*
X175909523Y-96025238D01*
X176004761Y-95930000D01*
X176147619Y-95882380D01*
X176242857Y-95882380D01*
X176385714Y-95930000D01*
X176433333Y-95977619D01*
X176814285Y-95977619D02*
X176861904Y-95930000D01*
X176957142Y-95882380D01*
X177195238Y-95882380D01*
X177290476Y-95930000D01*
X177338095Y-95977619D01*
X177385714Y-96072857D01*
X177385714Y-96168095D01*
X177338095Y-96310952D01*
X176766666Y-96882380D01*
X177385714Y-96882380D01*
X77773333Y-84387142D02*
X77725714Y-84434761D01*
X77582857Y-84482380D01*
X77487619Y-84482380D01*
X77344761Y-84434761D01*
X77249523Y-84339523D01*
X77201904Y-84244285D01*
X77154285Y-84053809D01*
X77154285Y-83910952D01*
X77201904Y-83720476D01*
X77249523Y-83625238D01*
X77344761Y-83530000D01*
X77487619Y-83482380D01*
X77582857Y-83482380D01*
X77725714Y-83530000D01*
X77773333Y-83577619D01*
X78725714Y-84482380D02*
X78154285Y-84482380D01*
X78440000Y-84482380D02*
X78440000Y-83482380D01*
X78344761Y-83625238D01*
X78249523Y-83720476D01*
X78154285Y-83768095D01*
X184928095Y-89304761D02*
X185070952Y-89352380D01*
X185309047Y-89352380D01*
X185404285Y-89304761D01*
X185451904Y-89257142D01*
X185499523Y-89161904D01*
X185499523Y-89066666D01*
X185451904Y-88971428D01*
X185404285Y-88923809D01*
X185309047Y-88876190D01*
X185118571Y-88828571D01*
X185023333Y-88780952D01*
X184975714Y-88733333D01*
X184928095Y-88638095D01*
X184928095Y-88542857D01*
X184975714Y-88447619D01*
X185023333Y-88400000D01*
X185118571Y-88352380D01*
X185356666Y-88352380D01*
X185499523Y-88400000D01*
X185928095Y-89352380D02*
X185928095Y-88352380D01*
X186261428Y-89066666D01*
X186594761Y-88352380D01*
X186594761Y-89352380D01*
X187023333Y-89066666D02*
X187499523Y-89066666D01*
X186928095Y-89352380D02*
X187261428Y-88352380D01*
X187594761Y-89352380D01*
X187880476Y-88447619D02*
X187928095Y-88400000D01*
X188023333Y-88352380D01*
X188261428Y-88352380D01*
X188356666Y-88400000D01*
X188404285Y-88447619D01*
X188451904Y-88542857D01*
X188451904Y-88638095D01*
X188404285Y-88780952D01*
X187832857Y-89352380D01*
X188451904Y-89352380D01*
X65548095Y-89304761D02*
X65690952Y-89352380D01*
X65929047Y-89352380D01*
X66024285Y-89304761D01*
X66071904Y-89257142D01*
X66119523Y-89161904D01*
X66119523Y-89066666D01*
X66071904Y-88971428D01*
X66024285Y-88923809D01*
X65929047Y-88876190D01*
X65738571Y-88828571D01*
X65643333Y-88780952D01*
X65595714Y-88733333D01*
X65548095Y-88638095D01*
X65548095Y-88542857D01*
X65595714Y-88447619D01*
X65643333Y-88400000D01*
X65738571Y-88352380D01*
X65976666Y-88352380D01*
X66119523Y-88400000D01*
X66548095Y-89352380D02*
X66548095Y-88352380D01*
X66881428Y-89066666D01*
X67214761Y-88352380D01*
X67214761Y-89352380D01*
X67643333Y-89066666D02*
X68119523Y-89066666D01*
X67548095Y-89352380D02*
X67881428Y-88352380D01*
X68214761Y-89352380D01*
X69071904Y-89352380D02*
X68500476Y-89352380D01*
X68786190Y-89352380D02*
X68786190Y-88352380D01*
X68690952Y-88495238D01*
X68595714Y-88590476D01*
X68500476Y-88638095D01*
X177466666Y-80732380D02*
X177466666Y-81446666D01*
X177419047Y-81589523D01*
X177323809Y-81684761D01*
X177180952Y-81732380D01*
X177085714Y-81732380D01*
X178466666Y-81732380D02*
X177895238Y-81732380D01*
X178180952Y-81732380D02*
X178180952Y-80732380D01*
X178085714Y-80875238D01*
X177990476Y-80970476D01*
X177895238Y-81018095D01*
M02*
