G04 #@! TF.GenerationSoftware,KiCad,Pcbnew,5.1.2-f72e74a~84~ubuntu18.04.1*
G04 #@! TF.CreationDate,2019-11-26T15:09:58+01:00*
G04 #@! TF.ProjectId,FR4_proto2,4652345f-7072-46f7-946f-322e6b696361,rev?*
G04 #@! TF.SameCoordinates,Original*
G04 #@! TF.FileFunction,Paste,Top*
G04 #@! TF.FilePolarity,Positive*
%FSLAX46Y46*%
G04 Gerber Fmt 4.6, Leading zero omitted, Abs format (unit mm)*
G04 Created by KiCad (PCBNEW 5.1.2-f72e74a~84~ubuntu18.04.1) date 2019-11-26 15:09:58*
%MOMM*%
%LPD*%
G04 APERTURE LIST*
%ADD10C,0.100000*%
%ADD11C,1.050000*%
%ADD12R,4.060000X1.520000*%
%ADD13R,4.600000X1.520000*%
G04 APERTURE END LIST*
D10*
G36*
X176199505Y-94426204D02*
G01*
X176223773Y-94429804D01*
X176247572Y-94435765D01*
X176270671Y-94444030D01*
X176292850Y-94454520D01*
X176313893Y-94467132D01*
X176333599Y-94481747D01*
X176351777Y-94498223D01*
X176368253Y-94516401D01*
X176382868Y-94536107D01*
X176395480Y-94557150D01*
X176405970Y-94579329D01*
X176414235Y-94602428D01*
X176420196Y-94626227D01*
X176423796Y-94650495D01*
X176425000Y-94674999D01*
X176425000Y-95225001D01*
X176423796Y-95249505D01*
X176420196Y-95273773D01*
X176414235Y-95297572D01*
X176405970Y-95320671D01*
X176395480Y-95342850D01*
X176382868Y-95363893D01*
X176368253Y-95383599D01*
X176351777Y-95401777D01*
X176333599Y-95418253D01*
X176313893Y-95432868D01*
X176292850Y-95445480D01*
X176270671Y-95455970D01*
X176247572Y-95464235D01*
X176223773Y-95470196D01*
X176199505Y-95473796D01*
X176175001Y-95475000D01*
X175424999Y-95475000D01*
X175400495Y-95473796D01*
X175376227Y-95470196D01*
X175352428Y-95464235D01*
X175329329Y-95455970D01*
X175307150Y-95445480D01*
X175286107Y-95432868D01*
X175266401Y-95418253D01*
X175248223Y-95401777D01*
X175231747Y-95383599D01*
X175217132Y-95363893D01*
X175204520Y-95342850D01*
X175194030Y-95320671D01*
X175185765Y-95297572D01*
X175179804Y-95273773D01*
X175176204Y-95249505D01*
X175175000Y-95225001D01*
X175175000Y-94674999D01*
X175176204Y-94650495D01*
X175179804Y-94626227D01*
X175185765Y-94602428D01*
X175194030Y-94579329D01*
X175204520Y-94557150D01*
X175217132Y-94536107D01*
X175231747Y-94516401D01*
X175248223Y-94498223D01*
X175266401Y-94481747D01*
X175286107Y-94467132D01*
X175307150Y-94454520D01*
X175329329Y-94444030D01*
X175352428Y-94435765D01*
X175376227Y-94429804D01*
X175400495Y-94426204D01*
X175424999Y-94425000D01*
X176175001Y-94425000D01*
X176199505Y-94426204D01*
X176199505Y-94426204D01*
G37*
D11*
X175800000Y-94950000D03*
D10*
G36*
X177799505Y-94426204D02*
G01*
X177823773Y-94429804D01*
X177847572Y-94435765D01*
X177870671Y-94444030D01*
X177892850Y-94454520D01*
X177913893Y-94467132D01*
X177933599Y-94481747D01*
X177951777Y-94498223D01*
X177968253Y-94516401D01*
X177982868Y-94536107D01*
X177995480Y-94557150D01*
X178005970Y-94579329D01*
X178014235Y-94602428D01*
X178020196Y-94626227D01*
X178023796Y-94650495D01*
X178025000Y-94674999D01*
X178025000Y-95225001D01*
X178023796Y-95249505D01*
X178020196Y-95273773D01*
X178014235Y-95297572D01*
X178005970Y-95320671D01*
X177995480Y-95342850D01*
X177982868Y-95363893D01*
X177968253Y-95383599D01*
X177951777Y-95401777D01*
X177933599Y-95418253D01*
X177913893Y-95432868D01*
X177892850Y-95445480D01*
X177870671Y-95455970D01*
X177847572Y-95464235D01*
X177823773Y-95470196D01*
X177799505Y-95473796D01*
X177775001Y-95475000D01*
X177024999Y-95475000D01*
X177000495Y-95473796D01*
X176976227Y-95470196D01*
X176952428Y-95464235D01*
X176929329Y-95455970D01*
X176907150Y-95445480D01*
X176886107Y-95432868D01*
X176866401Y-95418253D01*
X176848223Y-95401777D01*
X176831747Y-95383599D01*
X176817132Y-95363893D01*
X176804520Y-95342850D01*
X176794030Y-95320671D01*
X176785765Y-95297572D01*
X176779804Y-95273773D01*
X176776204Y-95249505D01*
X176775000Y-95225001D01*
X176775000Y-94674999D01*
X176776204Y-94650495D01*
X176779804Y-94626227D01*
X176785765Y-94602428D01*
X176794030Y-94579329D01*
X176804520Y-94557150D01*
X176817132Y-94536107D01*
X176831747Y-94516401D01*
X176848223Y-94498223D01*
X176866401Y-94481747D01*
X176886107Y-94467132D01*
X176907150Y-94454520D01*
X176929329Y-94444030D01*
X176952428Y-94435765D01*
X176976227Y-94429804D01*
X177000495Y-94426204D01*
X177024999Y-94425000D01*
X177775001Y-94425000D01*
X177799505Y-94426204D01*
X177799505Y-94426204D01*
G37*
D11*
X177400000Y-94950000D03*
D10*
G36*
X77539505Y-82026204D02*
G01*
X77563773Y-82029804D01*
X77587572Y-82035765D01*
X77610671Y-82044030D01*
X77632850Y-82054520D01*
X77653893Y-82067132D01*
X77673599Y-82081747D01*
X77691777Y-82098223D01*
X77708253Y-82116401D01*
X77722868Y-82136107D01*
X77735480Y-82157150D01*
X77745970Y-82179329D01*
X77754235Y-82202428D01*
X77760196Y-82226227D01*
X77763796Y-82250495D01*
X77765000Y-82274999D01*
X77765000Y-82825001D01*
X77763796Y-82849505D01*
X77760196Y-82873773D01*
X77754235Y-82897572D01*
X77745970Y-82920671D01*
X77735480Y-82942850D01*
X77722868Y-82963893D01*
X77708253Y-82983599D01*
X77691777Y-83001777D01*
X77673599Y-83018253D01*
X77653893Y-83032868D01*
X77632850Y-83045480D01*
X77610671Y-83055970D01*
X77587572Y-83064235D01*
X77563773Y-83070196D01*
X77539505Y-83073796D01*
X77515001Y-83075000D01*
X76764999Y-83075000D01*
X76740495Y-83073796D01*
X76716227Y-83070196D01*
X76692428Y-83064235D01*
X76669329Y-83055970D01*
X76647150Y-83045480D01*
X76626107Y-83032868D01*
X76606401Y-83018253D01*
X76588223Y-83001777D01*
X76571747Y-82983599D01*
X76557132Y-82963893D01*
X76544520Y-82942850D01*
X76534030Y-82920671D01*
X76525765Y-82897572D01*
X76519804Y-82873773D01*
X76516204Y-82849505D01*
X76515000Y-82825001D01*
X76515000Y-82274999D01*
X76516204Y-82250495D01*
X76519804Y-82226227D01*
X76525765Y-82202428D01*
X76534030Y-82179329D01*
X76544520Y-82157150D01*
X76557132Y-82136107D01*
X76571747Y-82116401D01*
X76588223Y-82098223D01*
X76606401Y-82081747D01*
X76626107Y-82067132D01*
X76647150Y-82054520D01*
X76669329Y-82044030D01*
X76692428Y-82035765D01*
X76716227Y-82029804D01*
X76740495Y-82026204D01*
X76764999Y-82025000D01*
X77515001Y-82025000D01*
X77539505Y-82026204D01*
X77539505Y-82026204D01*
G37*
D11*
X77140000Y-82550000D03*
D10*
G36*
X79139505Y-82026204D02*
G01*
X79163773Y-82029804D01*
X79187572Y-82035765D01*
X79210671Y-82044030D01*
X79232850Y-82054520D01*
X79253893Y-82067132D01*
X79273599Y-82081747D01*
X79291777Y-82098223D01*
X79308253Y-82116401D01*
X79322868Y-82136107D01*
X79335480Y-82157150D01*
X79345970Y-82179329D01*
X79354235Y-82202428D01*
X79360196Y-82226227D01*
X79363796Y-82250495D01*
X79365000Y-82274999D01*
X79365000Y-82825001D01*
X79363796Y-82849505D01*
X79360196Y-82873773D01*
X79354235Y-82897572D01*
X79345970Y-82920671D01*
X79335480Y-82942850D01*
X79322868Y-82963893D01*
X79308253Y-82983599D01*
X79291777Y-83001777D01*
X79273599Y-83018253D01*
X79253893Y-83032868D01*
X79232850Y-83045480D01*
X79210671Y-83055970D01*
X79187572Y-83064235D01*
X79163773Y-83070196D01*
X79139505Y-83073796D01*
X79115001Y-83075000D01*
X78364999Y-83075000D01*
X78340495Y-83073796D01*
X78316227Y-83070196D01*
X78292428Y-83064235D01*
X78269329Y-83055970D01*
X78247150Y-83045480D01*
X78226107Y-83032868D01*
X78206401Y-83018253D01*
X78188223Y-83001777D01*
X78171747Y-82983599D01*
X78157132Y-82963893D01*
X78144520Y-82942850D01*
X78134030Y-82920671D01*
X78125765Y-82897572D01*
X78119804Y-82873773D01*
X78116204Y-82849505D01*
X78115000Y-82825001D01*
X78115000Y-82274999D01*
X78116204Y-82250495D01*
X78119804Y-82226227D01*
X78125765Y-82202428D01*
X78134030Y-82179329D01*
X78144520Y-82157150D01*
X78157132Y-82136107D01*
X78171747Y-82116401D01*
X78188223Y-82098223D01*
X78206401Y-82081747D01*
X78226107Y-82067132D01*
X78247150Y-82054520D01*
X78269329Y-82044030D01*
X78292428Y-82035765D01*
X78316227Y-82029804D01*
X78340495Y-82026204D01*
X78364999Y-82025000D01*
X79115001Y-82025000D01*
X79139505Y-82026204D01*
X79139505Y-82026204D01*
G37*
D11*
X78740000Y-82550000D03*
D12*
X184150000Y-97490000D03*
X184150000Y-92410000D03*
D13*
X184150000Y-94950000D03*
D12*
X71120000Y-80010000D03*
X71120000Y-85090000D03*
D13*
X71120000Y-82550000D03*
M02*
