G04 #@! TF.GenerationSoftware,KiCad,Pcbnew,5.1.2-f72e74a~84~ubuntu18.04.1*
G04 #@! TF.CreationDate,2019-11-26T15:09:58+01:00*
G04 #@! TF.ProjectId,FR4_proto2,4652345f-7072-46f7-946f-322e6b696361,rev?*
G04 #@! TF.SameCoordinates,Original*
G04 #@! TF.FileFunction,Copper,L2,Bot*
G04 #@! TF.FilePolarity,Positive*
%FSLAX46Y46*%
G04 Gerber Fmt 4.6, Leading zero omitted, Abs format (unit mm)*
G04 Created by KiCad (PCBNEW 5.1.2-f72e74a~84~ubuntu18.04.1) date 2019-11-26 15:09:58*
%MOMM*%
%LPD*%
G04 APERTURE LIST*
%ADD10C,1.524000*%
%ADD11C,0.800000*%
%ADD12C,0.254000*%
G04 APERTURE END LIST*
D10*
X179070000Y-78740000D03*
X182570000Y-78740000D03*
D11*
X185420000Y-97790000D03*
X184150000Y-97790000D03*
X182880000Y-97790000D03*
X185420000Y-92710000D03*
X184150000Y-92710000D03*
X182880000Y-92710000D03*
X72390000Y-85090000D03*
X71120000Y-85090000D03*
X69850000Y-85090000D03*
X72390000Y-80010000D03*
X71120000Y-80010000D03*
X69850000Y-80010000D03*
D12*
G36*
X186030001Y-100940000D02*
G01*
X69240000Y-100940000D01*
X69240000Y-79705565D01*
X178284040Y-79705565D01*
X178351020Y-79945656D01*
X178600048Y-80062756D01*
X178867135Y-80129023D01*
X179142017Y-80141910D01*
X179414133Y-80100922D01*
X179673023Y-80007636D01*
X179788980Y-79945656D01*
X179855960Y-79705565D01*
X181784040Y-79705565D01*
X181851020Y-79945656D01*
X182100048Y-80062756D01*
X182367135Y-80129023D01*
X182642017Y-80141910D01*
X182914133Y-80100922D01*
X183173023Y-80007636D01*
X183288980Y-79945656D01*
X183355960Y-79705565D01*
X182570000Y-78919605D01*
X181784040Y-79705565D01*
X179855960Y-79705565D01*
X179070000Y-78919605D01*
X178284040Y-79705565D01*
X69240000Y-79705565D01*
X69240000Y-78812017D01*
X177668090Y-78812017D01*
X177709078Y-79084133D01*
X177802364Y-79343023D01*
X177864344Y-79458980D01*
X178104435Y-79525960D01*
X178890395Y-78740000D01*
X179249605Y-78740000D01*
X180035565Y-79525960D01*
X180275656Y-79458980D01*
X180392756Y-79209952D01*
X180459023Y-78942865D01*
X180465157Y-78812017D01*
X181168090Y-78812017D01*
X181209078Y-79084133D01*
X181302364Y-79343023D01*
X181364344Y-79458980D01*
X181604435Y-79525960D01*
X182390395Y-78740000D01*
X182749605Y-78740000D01*
X183535565Y-79525960D01*
X183775656Y-79458980D01*
X183892756Y-79209952D01*
X183959023Y-78942865D01*
X183971910Y-78667983D01*
X183930922Y-78395867D01*
X183837636Y-78136977D01*
X183775656Y-78021020D01*
X183535565Y-77954040D01*
X182749605Y-78740000D01*
X182390395Y-78740000D01*
X181604435Y-77954040D01*
X181364344Y-78021020D01*
X181247244Y-78270048D01*
X181180977Y-78537135D01*
X181168090Y-78812017D01*
X180465157Y-78812017D01*
X180471910Y-78667983D01*
X180430922Y-78395867D01*
X180337636Y-78136977D01*
X180275656Y-78021020D01*
X180035565Y-77954040D01*
X179249605Y-78740000D01*
X178890395Y-78740000D01*
X178104435Y-77954040D01*
X177864344Y-78021020D01*
X177747244Y-78270048D01*
X177680977Y-78537135D01*
X177668090Y-78812017D01*
X69240000Y-78812017D01*
X69240000Y-77774435D01*
X178284040Y-77774435D01*
X179070000Y-78560395D01*
X179855960Y-77774435D01*
X181784040Y-77774435D01*
X182570000Y-78560395D01*
X183355960Y-77774435D01*
X183288980Y-77534344D01*
X183039952Y-77417244D01*
X182772865Y-77350977D01*
X182497983Y-77338090D01*
X182225867Y-77379078D01*
X181966977Y-77472364D01*
X181851020Y-77534344D01*
X181784040Y-77774435D01*
X179855960Y-77774435D01*
X179788980Y-77534344D01*
X179539952Y-77417244D01*
X179272865Y-77350977D01*
X178997983Y-77338090D01*
X178725867Y-77379078D01*
X178466977Y-77472364D01*
X178351020Y-77534344D01*
X178284040Y-77774435D01*
X69240000Y-77774435D01*
X69240000Y-76860000D01*
X186030000Y-76860000D01*
X186030001Y-100940000D01*
X186030001Y-100940000D01*
G37*
X186030001Y-100940000D02*
X69240000Y-100940000D01*
X69240000Y-79705565D01*
X178284040Y-79705565D01*
X178351020Y-79945656D01*
X178600048Y-80062756D01*
X178867135Y-80129023D01*
X179142017Y-80141910D01*
X179414133Y-80100922D01*
X179673023Y-80007636D01*
X179788980Y-79945656D01*
X179855960Y-79705565D01*
X181784040Y-79705565D01*
X181851020Y-79945656D01*
X182100048Y-80062756D01*
X182367135Y-80129023D01*
X182642017Y-80141910D01*
X182914133Y-80100922D01*
X183173023Y-80007636D01*
X183288980Y-79945656D01*
X183355960Y-79705565D01*
X182570000Y-78919605D01*
X181784040Y-79705565D01*
X179855960Y-79705565D01*
X179070000Y-78919605D01*
X178284040Y-79705565D01*
X69240000Y-79705565D01*
X69240000Y-78812017D01*
X177668090Y-78812017D01*
X177709078Y-79084133D01*
X177802364Y-79343023D01*
X177864344Y-79458980D01*
X178104435Y-79525960D01*
X178890395Y-78740000D01*
X179249605Y-78740000D01*
X180035565Y-79525960D01*
X180275656Y-79458980D01*
X180392756Y-79209952D01*
X180459023Y-78942865D01*
X180465157Y-78812017D01*
X181168090Y-78812017D01*
X181209078Y-79084133D01*
X181302364Y-79343023D01*
X181364344Y-79458980D01*
X181604435Y-79525960D01*
X182390395Y-78740000D01*
X182749605Y-78740000D01*
X183535565Y-79525960D01*
X183775656Y-79458980D01*
X183892756Y-79209952D01*
X183959023Y-78942865D01*
X183971910Y-78667983D01*
X183930922Y-78395867D01*
X183837636Y-78136977D01*
X183775656Y-78021020D01*
X183535565Y-77954040D01*
X182749605Y-78740000D01*
X182390395Y-78740000D01*
X181604435Y-77954040D01*
X181364344Y-78021020D01*
X181247244Y-78270048D01*
X181180977Y-78537135D01*
X181168090Y-78812017D01*
X180465157Y-78812017D01*
X180471910Y-78667983D01*
X180430922Y-78395867D01*
X180337636Y-78136977D01*
X180275656Y-78021020D01*
X180035565Y-77954040D01*
X179249605Y-78740000D01*
X178890395Y-78740000D01*
X178104435Y-77954040D01*
X177864344Y-78021020D01*
X177747244Y-78270048D01*
X177680977Y-78537135D01*
X177668090Y-78812017D01*
X69240000Y-78812017D01*
X69240000Y-77774435D01*
X178284040Y-77774435D01*
X179070000Y-78560395D01*
X179855960Y-77774435D01*
X181784040Y-77774435D01*
X182570000Y-78560395D01*
X183355960Y-77774435D01*
X183288980Y-77534344D01*
X183039952Y-77417244D01*
X182772865Y-77350977D01*
X182497983Y-77338090D01*
X182225867Y-77379078D01*
X181966977Y-77472364D01*
X181851020Y-77534344D01*
X181784040Y-77774435D01*
X179855960Y-77774435D01*
X179788980Y-77534344D01*
X179539952Y-77417244D01*
X179272865Y-77350977D01*
X178997983Y-77338090D01*
X178725867Y-77379078D01*
X178466977Y-77472364D01*
X178351020Y-77534344D01*
X178284040Y-77774435D01*
X69240000Y-77774435D01*
X69240000Y-76860000D01*
X186030000Y-76860000D01*
X186030001Y-100940000D01*
M02*
