G04 #@! TF.GenerationSoftware,KiCad,Pcbnew,5.1.2-f72e74a~84~ubuntu18.04.1*
G04 #@! TF.CreationDate,2019-11-21T14:14:44+01:00*
G04 #@! TF.ProjectId,FR4_proto,4652345f-7072-46f7-946f-2e6b69636164,rev?*
G04 #@! TF.SameCoordinates,Original*
G04 #@! TF.FileFunction,Legend,Top*
G04 #@! TF.FilePolarity,Positive*
%FSLAX46Y46*%
G04 Gerber Fmt 4.6, Leading zero omitted, Abs format (unit mm)*
G04 Created by KiCad (PCBNEW 5.1.2-f72e74a~84~ubuntu18.04.1) date 2019-11-21 14:14:44*
%MOMM*%
%LPD*%
G04 APERTURE LIST*
%ADD10C,0.120000*%
%ADD11C,0.150000*%
G04 APERTURE END LIST*
D10*
X174240000Y-83820000D02*
G75*
G03X174240000Y-83820000I-250000J0D01*
G01*
X170420000Y-83390000D02*
X178520000Y-83390000D01*
X178520000Y-86790000D02*
X170420000Y-86790000D01*
X170420000Y-83390000D02*
X170420000Y-86790000D01*
X178520000Y-83390000D02*
X178520000Y-86790000D01*
X179070000Y-104910000D02*
X177800000Y-103640000D01*
X179070000Y-102370000D02*
X177800000Y-103640000D01*
X172720000Y-108720000D02*
X187960000Y-108720000D01*
X187960000Y-98560000D02*
X172720000Y-98560000D01*
X173990000Y-106180000D02*
X173990000Y-107450000D01*
X179070000Y-106180000D02*
X173990000Y-106180000D01*
X179070000Y-101100000D02*
X179070000Y-106180000D01*
X173990000Y-101100000D02*
X179070000Y-101100000D01*
X173990000Y-99830000D02*
X173990000Y-101100000D01*
X186690000Y-101100000D02*
X186690000Y-106180000D01*
X180340000Y-101100000D02*
X186690000Y-101100000D01*
X180340000Y-99830000D02*
X180340000Y-101100000D01*
X180340000Y-106180000D02*
X186690000Y-106180000D01*
X180340000Y-107450000D02*
X180340000Y-106180000D01*
X187960000Y-108720000D02*
X187960000Y-98560000D01*
X172720000Y-98560000D02*
X172720000Y-108720000D01*
X180340000Y-107450000D02*
X173990000Y-107450000D01*
X173990000Y-99830000D02*
X180340000Y-99830000D01*
X55880000Y-87630000D02*
X57150000Y-88900000D01*
X55880000Y-90170000D02*
X57150000Y-88900000D01*
X62230000Y-83820000D02*
X46990000Y-83820000D01*
X46990000Y-93980000D02*
X62230000Y-93980000D01*
X60960000Y-86360000D02*
X60960000Y-85090000D01*
X55880000Y-86360000D02*
X60960000Y-86360000D01*
X55880000Y-91440000D02*
X55880000Y-86360000D01*
X60960000Y-91440000D02*
X55880000Y-91440000D01*
X60960000Y-92710000D02*
X60960000Y-91440000D01*
X48260000Y-91440000D02*
X48260000Y-86360000D01*
X54610000Y-91440000D02*
X48260000Y-91440000D01*
X54610000Y-92710000D02*
X54610000Y-91440000D01*
X54610000Y-86360000D02*
X48260000Y-86360000D01*
X54610000Y-85090000D02*
X54610000Y-86360000D01*
X46990000Y-83820000D02*
X46990000Y-93980000D01*
X62230000Y-93980000D02*
X62230000Y-83820000D01*
X54610000Y-85090000D02*
X60960000Y-85090000D01*
X60960000Y-92710000D02*
X54610000Y-92710000D01*
X165860000Y-107873733D02*
X165860000Y-108216267D01*
X166880000Y-107873733D02*
X166880000Y-108216267D01*
X69340000Y-92533733D02*
X69340000Y-92876267D01*
X70360000Y-92533733D02*
X70360000Y-92876267D01*
X172665000Y-102826000D02*
X170180000Y-102826000D01*
X172665000Y-104396000D02*
X172665000Y-102826000D01*
X170180000Y-104396000D02*
X172665000Y-104396000D01*
X163645000Y-102826000D02*
X161160000Y-102826000D01*
X163645000Y-104396000D02*
X163645000Y-102826000D01*
X161160000Y-104396000D02*
X163645000Y-104396000D01*
X75345000Y-88115000D02*
X72860000Y-88115000D01*
X75345000Y-89685000D02*
X75345000Y-88115000D01*
X72860000Y-89685000D02*
X75345000Y-89685000D01*
X66925000Y-88115000D02*
X64440000Y-88115000D01*
X66925000Y-89685000D02*
X66925000Y-88115000D01*
X64440000Y-89685000D02*
X66925000Y-89685000D01*
D11*
X168576666Y-87082380D02*
X168576666Y-87796666D01*
X168529047Y-87939523D01*
X168433809Y-88034761D01*
X168290952Y-88082380D01*
X168195714Y-88082380D01*
X169576666Y-88082380D02*
X169005238Y-88082380D01*
X169290952Y-88082380D02*
X169290952Y-87082380D01*
X169195714Y-87225238D01*
X169100476Y-87320476D01*
X169005238Y-87368095D01*
X169688095Y-95654761D02*
X169830952Y-95702380D01*
X170069047Y-95702380D01*
X170164285Y-95654761D01*
X170211904Y-95607142D01*
X170259523Y-95511904D01*
X170259523Y-95416666D01*
X170211904Y-95321428D01*
X170164285Y-95273809D01*
X170069047Y-95226190D01*
X169878571Y-95178571D01*
X169783333Y-95130952D01*
X169735714Y-95083333D01*
X169688095Y-94988095D01*
X169688095Y-94892857D01*
X169735714Y-94797619D01*
X169783333Y-94750000D01*
X169878571Y-94702380D01*
X170116666Y-94702380D01*
X170259523Y-94750000D01*
X170688095Y-95702380D02*
X170688095Y-94702380D01*
X171021428Y-95416666D01*
X171354761Y-94702380D01*
X171354761Y-95702380D01*
X171783333Y-95416666D02*
X172259523Y-95416666D01*
X171688095Y-95702380D02*
X172021428Y-94702380D01*
X172354761Y-95702380D01*
X172640476Y-94797619D02*
X172688095Y-94750000D01*
X172783333Y-94702380D01*
X173021428Y-94702380D01*
X173116666Y-94750000D01*
X173164285Y-94797619D01*
X173211904Y-94892857D01*
X173211904Y-94988095D01*
X173164285Y-95130952D01*
X172592857Y-95702380D01*
X173211904Y-95702380D01*
X60468095Y-96924761D02*
X60610952Y-96972380D01*
X60849047Y-96972380D01*
X60944285Y-96924761D01*
X60991904Y-96877142D01*
X61039523Y-96781904D01*
X61039523Y-96686666D01*
X60991904Y-96591428D01*
X60944285Y-96543809D01*
X60849047Y-96496190D01*
X60658571Y-96448571D01*
X60563333Y-96400952D01*
X60515714Y-96353333D01*
X60468095Y-96258095D01*
X60468095Y-96162857D01*
X60515714Y-96067619D01*
X60563333Y-96020000D01*
X60658571Y-95972380D01*
X60896666Y-95972380D01*
X61039523Y-96020000D01*
X61468095Y-96972380D02*
X61468095Y-95972380D01*
X61801428Y-96686666D01*
X62134761Y-95972380D01*
X62134761Y-96972380D01*
X62563333Y-96686666D02*
X63039523Y-96686666D01*
X62468095Y-96972380D02*
X62801428Y-95972380D01*
X63134761Y-96972380D01*
X63991904Y-96972380D02*
X63420476Y-96972380D01*
X63706190Y-96972380D02*
X63706190Y-95972380D01*
X63610952Y-96115238D01*
X63515714Y-96210476D01*
X63420476Y-96258095D01*
X168252380Y-108211666D02*
X168252380Y-108687857D01*
X167252380Y-108687857D01*
X167347619Y-107925952D02*
X167300000Y-107878333D01*
X167252380Y-107783095D01*
X167252380Y-107545000D01*
X167300000Y-107449761D01*
X167347619Y-107402142D01*
X167442857Y-107354523D01*
X167538095Y-107354523D01*
X167680952Y-107402142D01*
X168252380Y-107973571D01*
X168252380Y-107354523D01*
X71732380Y-92871666D02*
X71732380Y-93347857D01*
X70732380Y-93347857D01*
X71732380Y-92014523D02*
X71732380Y-92585952D01*
X71732380Y-92300238D02*
X70732380Y-92300238D01*
X70875238Y-92395476D01*
X70970476Y-92490714D01*
X71018095Y-92585952D01*
X170813333Y-105448142D02*
X170765714Y-105495761D01*
X170622857Y-105543380D01*
X170527619Y-105543380D01*
X170384761Y-105495761D01*
X170289523Y-105400523D01*
X170241904Y-105305285D01*
X170194285Y-105114809D01*
X170194285Y-104971952D01*
X170241904Y-104781476D01*
X170289523Y-104686238D01*
X170384761Y-104591000D01*
X170527619Y-104543380D01*
X170622857Y-104543380D01*
X170765714Y-104591000D01*
X170813333Y-104638619D01*
X171670476Y-104876714D02*
X171670476Y-105543380D01*
X171432380Y-104495761D02*
X171194285Y-105210047D01*
X171813333Y-105210047D01*
X161793333Y-105448142D02*
X161745714Y-105495761D01*
X161602857Y-105543380D01*
X161507619Y-105543380D01*
X161364761Y-105495761D01*
X161269523Y-105400523D01*
X161221904Y-105305285D01*
X161174285Y-105114809D01*
X161174285Y-104971952D01*
X161221904Y-104781476D01*
X161269523Y-104686238D01*
X161364761Y-104591000D01*
X161507619Y-104543380D01*
X161602857Y-104543380D01*
X161745714Y-104591000D01*
X161793333Y-104638619D01*
X162126666Y-104543380D02*
X162745714Y-104543380D01*
X162412380Y-104924333D01*
X162555238Y-104924333D01*
X162650476Y-104971952D01*
X162698095Y-105019571D01*
X162745714Y-105114809D01*
X162745714Y-105352904D01*
X162698095Y-105448142D01*
X162650476Y-105495761D01*
X162555238Y-105543380D01*
X162269523Y-105543380D01*
X162174285Y-105495761D01*
X162126666Y-105448142D01*
X73493333Y-90737142D02*
X73445714Y-90784761D01*
X73302857Y-90832380D01*
X73207619Y-90832380D01*
X73064761Y-90784761D01*
X72969523Y-90689523D01*
X72921904Y-90594285D01*
X72874285Y-90403809D01*
X72874285Y-90260952D01*
X72921904Y-90070476D01*
X72969523Y-89975238D01*
X73064761Y-89880000D01*
X73207619Y-89832380D01*
X73302857Y-89832380D01*
X73445714Y-89880000D01*
X73493333Y-89927619D01*
X73874285Y-89927619D02*
X73921904Y-89880000D01*
X74017142Y-89832380D01*
X74255238Y-89832380D01*
X74350476Y-89880000D01*
X74398095Y-89927619D01*
X74445714Y-90022857D01*
X74445714Y-90118095D01*
X74398095Y-90260952D01*
X73826666Y-90832380D01*
X74445714Y-90832380D01*
X65073333Y-90737142D02*
X65025714Y-90784761D01*
X64882857Y-90832380D01*
X64787619Y-90832380D01*
X64644761Y-90784761D01*
X64549523Y-90689523D01*
X64501904Y-90594285D01*
X64454285Y-90403809D01*
X64454285Y-90260952D01*
X64501904Y-90070476D01*
X64549523Y-89975238D01*
X64644761Y-89880000D01*
X64787619Y-89832380D01*
X64882857Y-89832380D01*
X65025714Y-89880000D01*
X65073333Y-89927619D01*
X66025714Y-90832380D02*
X65454285Y-90832380D01*
X65740000Y-90832380D02*
X65740000Y-89832380D01*
X65644761Y-89975238D01*
X65549523Y-90070476D01*
X65454285Y-90118095D01*
M02*
